<svg width="100" height="100" xmlns="http://www.w3.org/2000/svg">

 <g>
  <title>background</title>
  <rect fill="none" id="canvas_background" height="102" width="102" y="-1" x="-1"/>
 </g>
 <g>
  <title>Layer 1</title>
  <g stroke="null" id="svg_1">
   <g stroke="null" id="svg_39">
    <g stroke="null" id="svg_29" fill="#288fc9">
     <path stroke="null" id="svg_25" d="m82.096005,73.824748l-0.430038,-0.110882c-7.178192,6.796373 -13.453466,14.277035 -18.644264,22.22914l-4.562067,-3.372404l-5.341092,4.476572c14.973769,-0.794009 29.947074,-1.074122 44.919685,-0.825218c2.421601,-9.510463 -4.781139,-19.673618 -15.942224,-22.397207z"/>
     <path stroke="null" id="svg_26" d="m49.538826,96.150037c-1.751648,-2.394238 -5.204461,-7.108471 -6.995478,-9.560476c-5.150504,2.40994 -9.692192,5.970185 -11.324578,10.902886l19.296848,-0.002132c-0.232503,-0.318689 -0.753783,-1.029924 -0.976792,-1.340277z"/>
     <path stroke="null" id="svg_27" d="m30.065516,68.860838l-0.967297,-2.022435c-0.782962,0.924857 -1.784532,1.835176 -3.122121,2.144172c-0.084062,2.082528 -0.419386,4.207121 -0.782962,6.233433c2.109203,-1.745423 3.783737,-3.471849 5.035873,-6.065559c-0.022926,-0.03877 -0.139873,-0.258208 -0.163493,-0.289612z"/>
     <path stroke="null" id="svg_28" d="m13.106438,92.539392c4.251985,-5.173462 6.325757,-12.279219 5.665068,-18.861582c-11.87249,0.869416 -21.322915,13.196516 -16.399125,22.596291c2.352591,1.075672 5.149578,0.431703 8.062585,0.646877c3.180479,0.000194 6.284537,-0.074438 9.47451,-0.029659l0.315176,-1.104362c-2.426927,-1.024496 -4.913138,-2.04337 -7.118214,-3.247565z"/>
    </g>
    <path stroke="null" id="svg_30" fill="#f0f2fa" d="m79.031546,68.844942l-0.54189,-0.30764c-6.988762,7.635742 -14.405942,15.123577 -22.063499,22.2745l6.528387,4.822207c5.728752,-8.723627 12.735577,-16.857757 20.812983,-24.157945c-1.568239,-0.852551 -3.004017,-1.647529 -4.735981,-2.631123z"/>
    <path stroke="null" id="svg_31" fill="#f0f2fa" d="m45.012422,54.85558c2.692777,0.251617 2.174045,2.850561 1.630765,4.38682c4.426131,-1.547309 5.520796,2.167046 4.555351,5.048429c0.084989,-0.000775 0.668331,0.13647 0.697741,0.191911c3.416224,6.5213 1.360515,14.537763 -4.909896,19.352215l5.527743,4.086547l21.853458,-21.782122c-11.68167,-6.933618 -22.755914,-14.688772 -32.920523,-23.057847l-16.305105,14.998544c0.937424,1.95323 4.357816,9.076046 5.225072,10.891061c0.35385,-0.849837 0.88555,-2.09319 1.172474,-2.926744c0,0 -0.149599,-0.231844 -0.152146,-0.237272c0.054189,-0.123482 -3.066079,-5.720894 -2.761787,-5.807351c0.294798,-0.122125 2.869702,5.753849 3.014901,5.812973c1.059465,-3.146569 1.865121,-6.424569 3.544981,-9.41412c0.791299,-2.174413 4.528025,-3.205112 4.811244,-0.127553c0,-0.000194 0.161872,1.442048 0.161872,1.442048c1.220874,-1.278439 2.591115,-3.117492 4.853854,-2.857539z"/>
    <path stroke="null" id="svg_32" fill="#f0f2fa" d="m55.406987,91.166354c-0.000463,0.028496 -6.342894,3.920224 -6.360725,3.941159c0.533553,0.564103 1.572176,2.68385 2.499642,2.617553c0.794772,0.11127 6.068938,-4.891993 6.739585,-5.2826l-2.429706,-1.795049l-0.448796,0.518936z"/>
    <path stroke="null" id="svg_33" fill="#f0f2fa" d="m46.80807,83.961346c-1.162285,0.874844 -2.515158,1.678351 -4.073903,2.518302l3.302983,4.515342l5.879277,-3.255901l-5.108357,-3.777744z"/>
    <path stroke="null" id="svg_34" fill="#ffdac4" d="m73.99382,44.461162c-10.395955,-1.96932 -15.327155,-11.836466 -14.966821,-20.970473l-1.358199,-0.171363c-1.208137,2.186431 -1.482324,7.608021 -5.199367,7.804585c-3.97664,-0.388087 -2.682588,-6.589729 -2.938481,-9.188285l-1.332031,-0.248709c-4.198028,8.202946 -12.391222,15.223991 -22.044972,18.848012l1.666428,14.793644c0.125746,-0.038382 13.474539,-12.521337 13.635254,-12.483924c9.068324,7.394787 18.817715,14.437542 29.093713,20.75026c3.480834,-5.856395 4.726023,-12.678162 3.444476,-19.133747z"/>
    <path stroke="null" id="svg_35" fill="#ffdac4" d="m51.380558,63.713739c-1.199569,4.820074 -3.039217,9.689193 -6.215295,13.832731c2.400296,-4.194715 5.075705,-8.894602 5.903824,-13.761976c0.385807,-1.691533 0.619468,-4.363558 -2.405853,-4.714814c-0.925382,0.008529 -1.960531,0.319852 -2.319244,1.154181c-1.865584,5.591402 -4.148007,12.523664 -7.442885,17.011673c1.238011,-2.538463 14.274175,-26.596187 3.608433,-21.519262c-1.362367,1.005111 -2.217581,2.302935 -2.695325,3.494142c-0.714415,5.681736 -2.808334,11.323346 -6.053423,16.308193c2.67402,-5.156791 5.905213,-12.015196 6.017991,-18.307753c0.09981,-1.392423 -0.264924,-2.262614 -1.085401,-2.586925c-5.661826,-1.550023 -5.783172,17.305743 -13.607233,20.712071c-0.239219,-2.048604 2.517705,-12.690374 -1.132875,-13.579757c-1.052054,-0.220601 -2.109898,0.64552 -2.545726,1.148172c-3.49936,3.546675 -2.237729,10.011565 -2.331749,14.613946c-0.253577,5.460166 -2.257181,10.725707 -5.684521,14.976445c5.441828,2.68637 11.204853,4.938129 17.130445,6.69654c1.56685,-7.987192 8.538476,-10.77165 15.580501,-14.974506c7.15295,-4.889085 9.02224,-13.559403 5.278335,-20.503101z"/>
    <path stroke="null" id="svg_36" fill="#644c4c" d="m74.247629,11.61933c-3.87382,-2.425836 -8.938641,-3.308434 -13.406456,-1.955944c-0.100273,-0.002714 -0.149599,-0.096925 -0.077115,-0.168455c1.071507,-1.135184 2.285897,-2.421765 2.677725,-3.932824c0.502522,-1.708786 -0.641931,-4.084996 -3.073722,-4.047777c-3.480834,0.027721 -4.855475,3.534463 -5.140778,5.949443c-0.000232,0.089559 -0.134778,0.136276 -0.204714,0.065327c-1.592323,-1.465892 -0.254966,-4.425784 -2.239581,-5.597799c-1.432304,-0.783153 -3.380098,0.22409 -3.942135,1.421888c-0.723447,1.254014 -0.102125,2.782907 -0.011347,4.276326c-1.332726,-1.461433 -2.312759,-3.173321 -4.178807,-3.793252c-5.257029,-1.374007 -6.985983,3.294283 -1.147464,5.384952c-17.706146,1.01713 -29.061061,18.630125 -18.03869,31.3583c11.939184,-4.175136 21.308094,-13.749763 24.717371,-24.023995c-0.25705,3.596882 -0.730394,7.491518 -0.221851,11.198894c0.377934,4.846438 5.093768,3.479603 5.813509,0c9.639393,-25.617827 -6.414451,11.780831 18.724621,16.606721c10.328334,-8.341161 11.417209,-25.197367 -0.250566,-32.741806z"/>
    <path stroke="null" id="svg_37" fill="#b2eaf9" d="m75.072274,66.559453l-0.564816,-0.333228c-0.02061,0.0252 -0.412207,0.481329 -0.425407,0.500908c0,0 -21.394241,21.321923 -21.394241,21.321923l3.564433,2.635194c7.672841,-7.166626 15.082147,-14.647094 22.041499,-22.253952c-1.070117,-0.613341 -2.14695,-1.236374 -3.221468,-1.870844z"/>
    <path stroke="null" id="svg_38" fill="#b2eaf9" d="m46.156181,91.159763l2.76804,3.782397l6.938278,-4.287957l-3.764747,-2.783876l-5.941571,3.289437z"/>
   </g>
   <g stroke="null" id="svg_47">
    <path stroke="null" id="svg_40" d="m14.575794,50.539321l6.121043,1.904186c0.972392,0.320628 1.560366,-0.977003 0.564585,-1.272042l-6.12058,-1.903992c-0.978413,-0.318495 -1.557818,0.976809 -0.565048,1.271848z"/>
    <path stroke="null" id="svg_41" d="m14.758508,54.980225l4.712592,0.309384c1.043718,0.083162 1.178727,-1.297243 0.126673,-1.353071l-4.712592,-0.30919c-1.04557,-0.081805 -1.177569,1.297049 -0.126673,1.352877z"/>
    <path stroke="null" id="svg_42" d="m12.238256,59.896062c0.378628,0.018803 7.567473,-2.358182 7.912523,-2.416919c0.99115,-0.294845 0.415681,-1.590731 -0.565048,-1.272042l-7.629999,2.374272c-0.837846,0.236303 -0.587742,1.33989 0.282524,1.314689z"/>
    <path stroke="null" id="svg_43" d="m79.370807,55.045747c0.16442,0.352031 0.646331,0.518354 1.052054,0.381496c4.436784,-1.4688 9.091481,-2.43107 13.835105,-2.859865c1.04117,-0.081029 0.875824,-1.456781 -0.174377,-1.349388c-2.16154,0.214398 -15.098589,1.886546 -14.712781,3.827757z"/>
    <path stroke="null" id="svg_44" d="m92.849746,58.643792c0.954097,0.020548 1.099528,-1.22513 0.139641,-1.346868c-1.793101,-0.223509 -12.680462,-1.500397 -12.727703,0.318495c0.040989,0.373548 0.435133,0.647846 0.88115,0.61431c3.908093,-0.308997 7.842355,-0.136276 11.706912,0.414063z"/>
    <path stroke="null" id="svg_45" d="m81.105318,59.217975c-0.999949,-0.26034 -1.475145,1.063654 -0.458986,1.301507c3.865483,0.875232 7.488505,2.391331 11.07957,3.786661c4.107018,-1.231915 -9.411289,-4.73827 -10.620584,-5.088168z"/>
    <path stroke="null" id="svg_46" d="m95.96932,81.998423c-2.902818,-4.050103 -7.567705,-7.192989 -12.902776,-8.726147c0.511785,-0.68177 2.477411,-1.5539 1.323694,-2.384546c-4.341142,-2.347133 -8.601001,-4.806699 -12.776798,-7.365515c3.306688,-5.732913 4.505562,-12.291819 3.401403,-18.590192c14.548825,-10.223636 10.115746,-38.330882 -12.12954,-36.515867c5.55669,-6.510056 -4.738992,-11.470672 -7.906039,-3.700592c0.19684,-5.363823 -7.277076,-4.784018 -7.413938,0.092466c-3.884936,-4.614012 -12.895134,-0.349899 -6.53024,4.032269c-17.745514,1.795049 -27.38838,21.210071 -15.70671,32.629179l1.559903,13.850953l-2.481811,2.282581c-0.94275,0.191717 3.768453,8.422966 3.734642,8.808533c-0.285303,0.581162 -0.800099,1.089242 -1.433925,1.433713c0.017368,-1.154957 -0.019221,-2.310689 -0.111157,-3.464289c-0.114631,-3.475726 -3.519507,-4.627969 -5.92675,-1.944895c-2.38478,2.358182 -2.963028,6.981111 -2.630483,10.554538c-12.193918,1.149723 -21.920384,14.271801 -16.31321,23.839256c0.823025,0.669751 1.996657,0.719764 2.773135,0.752719c7.022804,0.277205 12.142508,-0.077928 19.15026,0.169812c2.206234,0.806415 4.44651,1.545176 6.712722,2.212795c1.2262,0.27895 1.108096,-1.056287 1.354494,-1.696185c5.421681,0.001745 10.843361,-0.008142 16.265042,-0.003102c7.642736,-0.361142 15.259535,-1.071408 22.924039,-1.135766c9.069945,-0.23514 18.1473,-0.298141 27.219792,-0.130073c0.383955,0 0.716499,-0.226223 0.793846,-0.542392c1.1998,-4.900522 0.124588,-10.170521 -2.949596,-14.459254zm-33.201658,12.72236l-5.357071,-3.958218c7.36137,-6.895042 14.50112,-14.103539 21.229821,-21.436876c1.347083,0.763768 2.699262,1.520751 4.061861,2.263584c-7.694146,7.028411 -14.394363,14.802949 -19.934611,23.13151zm-0.651889,1.328452c-2.408632,0.094599 -4.813096,0.203155 -7.212466,0.324504l3.585507,-3.004284l3.626959,2.679779zm-15.015453,-4.713845l4.936295,-2.733282l2.721956,2.011191l-5.63751,3.484062l-2.020741,-2.761971zm-0.401555,-6.525371c0.034968,-0.024813 0.068315,-0.050982 0.103052,-0.075795l3.975945,2.937793l-4.524551,2.505314l-2.574905,-3.519924c1.034686,-0.569531 2.062193,-1.171046 3.020459,-1.847388zm27.973575,-17.77486c0.871193,0.513314 1.745396,1.022751 2.623536,1.527342c-6.689102,7.2872 -13.784852,14.449949 -21.10037,21.301956l-2.53901,-1.875884c0.0308,-0.038188 20.99616,-20.913094 21.015844,-20.953414zm-50.65909,-46.148843c3.505844,-6.165004 11.334073,-10.545621 19.479562,-10.900754c0.806814,-0.013763 1.053212,-0.988634 0.33185,-1.279602c-8.027617,-3.395085 0.492101,-7.821062 4.267269,-0.822505c0.434438,0.6556 1.699544,0.243281 1.491587,-0.484624c-0.36566,-1.448445 -0.625721,-2.736383 -0.099578,-3.827176c0.462228,-0.863213 1.728954,-1.706072 2.911154,-1.157477c1.633081,1.173179 0.403407,4.060571 2.099245,5.493508c0.417765,0.438294 1.331568,0.223121 1.415862,-0.333228c1.001339,-9.262335 11.776848,-5.301597 4.29668,1.570958c-0.515954,0.507886 0.179009,1.308292 0.914961,1.058032c21.675376,-4.340296 26.69527,23.518434 13.157047,33.509839c-12.378717,-2.057521 -15.56128,-15.944143 -14.112765,-25.199306c0.080126,-0.774817 -1.324852,-0.999877 -1.583524,-0.245608c0,0 -3.473423,9.312736 -3.473423,9.312736c-0.744288,3.102759 -4.173944,4.107483 -4.457163,0.123095c-0.37886,-3.64612 -0.27164,-7.333918 0.318418,-10.960653c0.156083,-0.813587 -1.355883,-1.073734 -1.586997,-0.264605c-3.081827,10.045295 -12.334486,19.180077 -23.669022,23.368782c-4.386068,-5.477613 -5.08821,-13.004993 -1.701165,-18.961414zm2.878502,20.003357c9.593772,-3.700592 17.755703,-10.787158 21.9447,-18.970525c0.181788,2.857345 -0.877908,8.661595 2.87526,9.700436c4.845286,0.784898 5.315618,-5.563682 6.621481,-8.127539c-0.585658,8.506903 4.760528,19.575724 15.04301,21.440365c1.102075,6.009343 0.009726,12.277668 -3.092711,17.773891c-10.272987,-6.120612 -19.532825,-13.556301 -28.861441,-20.443589c-0.220924,0.005428 -0.429344,0.085488 -0.577785,0.221958l-12.479916,11.478426l-1.472598,-13.073422zm14.584719,3.029484c9.899685,8.108929 20.585574,15.58901 31.875416,22.328972l-20.911403,20.842145l-4.441415,-3.281683c5.963571,-4.888309 8.538939,-13.920157 3.993777,-19.941131c0.906856,-2.448322 -0.620858,-6.398787 -4.413626,-5.446791c1.531882,-4.24783 -4.112576,-5.658862 -6.890574,-2.204459c-0.110925,-2.235669 -2.61242,-3.218681 -4.608151,-1.873946c-2.837745,2.624144 -3.362266,6.439495 -4.580361,9.673685l-2.079793,-4.187542c-0.389281,-0.816495 -1.915373,-0.287673 -1.496914,0.521068c0.056968,0.094017 2.797913,5.668167 2.866692,5.755787c-0.145199,0.409798 -0.307997,0.820954 -0.468017,1.209235c-0.269556,-0.562552 -3.989145,-8.310533 -4.374258,-9.113265l15.528627,-14.282075zm-12.57741,24.070325c0.034968,0.057767 0.522669,1.119482 0.568985,1.167363c-0.931866,1.791559 -2.011015,3.219457 -3.281446,4.337582c0.23204,-1.361795 0.38326,-2.732312 0.461533,-4.105932c0.885319,-0.288061 1.66527,-0.778113 2.250928,-1.399014zm-14.89318,28.327459c-3.253425,-0.164385 -7.693914,0.476289 -11.149506,-0.460199c-4.223038,-8.873473 4.21447,-20.315649 15.251661,-21.501621c0.682457,20.806864 -13.879799,15.709584 1.813016,21.954842c-2.066362,-0.028302 -4.012303,-0.010662 -5.915171,0.006979zm0.365197,-4.018506c9.698676,-12.262742 1.802595,-21.543687 7.589473,-29.042765c5.040505,-4.686512 2.705283,10.230421 2.260423,11.877175c-0.15122,0.58058 0.711636,1.042718 1.275526,0.672659c7.404211,-3.983613 6.888258,-14.577502 11.610808,-20.414124c5.877887,-1.624849 -2.220592,17.097743 -3.549612,18.986033c-0.295029,0.465627 -0.840161,1.287938 -0.14682,1.709561c0.180398,0.109719 0.367513,0.075795 0.546985,-0.017834c2.762019,-2.476043 6.424641,-13.15542 6.530471,-16.674181c0.411975,-1.120258 1.222032,-2.304292 2.487137,-3.248534c2.121708,-1.378659 3.912493,0.007172 2.981091,2.124593c-1.774111,6.433486 -4.360595,12.731858 -7.686967,18.71949c1.187758,5.583067 8.504665,-15.716951 8.887462,-16.801734c2.820376,-1.977268 4.00304,1.655089 3.228183,3.494917c-1.005044,4.748931 -2.996143,9.264468 -5.917487,13.421382c-0.227177,0.322954 -0.098189,0.738761 0.287619,0.928928c2.47,0.463689 6.258368,-10.246317 6.76668,-12.204781c2.698798,6.263092 0.26585,13.703627 -5.868624,17.943509c-6.772006,4.004548 -13.974746,7.083464 -15.643953,14.645349c-5.409639,-1.64404 -10.662268,-3.699235 -15.638395,-6.119643zm23.191742,-2.098036c1.450598,-1.0559 3.130921,-1.941405 4.753118,-2.807138c2.319938,3.171382 4.64034,6.343346 6.960047,9.514534l-17.083667,0.003295c1.059928,-2.573162 2.931996,-4.935609 5.370502,-6.710691zm13.982851,6.942148c-0.287619,0.046718 -1.346389,-1.62039 -1.574955,-1.883638l5.826014,-3.600372c0.069473,-0.043035 0.12482,-0.094986 0.172756,-0.150621l1.301463,0.961689c-0.293408,0.185127 -5.495322,4.749901 -5.725278,4.672942zm45.910372,-1.511447c-11.175443,-0.176016 -22.457643,-0.056216 -33.670138,0.354745c5.072463,-7.728984 11.153443,-14.98226 18.106079,-21.605331c10.608311,2.588282 17.619073,12.163685 15.564059,21.250586z"/>
   </g>
  </g>
 </g>
</svg>