<svg width="100" height="100" xmlns="http://www.w3.org/2000/svg">

 <g>
  <title>background</title>
  <rect fill="none" id="canvas_background" height="102" width="102" y="-1" x="-1"/>
 </g>
 <g>
  <title>Layer 1</title>
  <g stroke="null" id="svg_1">
   <path stroke="null" id="svg_8" d="m65.052652,47.545296l-1.350492,7.285501c1.167001,-0.242686 2.234918,-0.725404 3.021952,-1.432623c1.978596,-1.778749 1.433769,-4.297112 -1.216403,-5.624969l-0.455057,-0.227909z"/>
   <path stroke="null" id="svg_9" d="m41.646847,45.808038c0.533534,0.346125 0.487803,0.27205 7.373225,3.736149l0.757111,-4.083601c-0.000283,-0.00019 -7.998223,0.346315 -8.130336,0.347452z"/>
   <path stroke="null" id="svg_10" d="m99.857187,97.097728l-12.900533,-52.979587c-0.730011,-2.990473 -4.013932,-5.298925 -8.219541,-5.999133c-0.081018,1.889577 -1.344564,3.602587 -3.33558,4.793472l0.644477,0c1.764052,0 3.251457,0.84798 3.536856,2.016319l5.500772,22.536629c-3.518789,0 -23.635027,0 -27.789541,0l4.160442,-22.444745c0.004799,-0.026334 0.013833,-0.05172 0.020043,-0.077864l-7.597648,0.336084l-9.618588,51.889112c-0.278624,1.502909 1.467926,2.829819 3.724581,2.829819c1.895037,0 3.492818,-0.948009 3.725146,-2.210317l4.656432,-25.307528l29.943158,0l6.205377,25.423851c0.294714,1.207557 1.849587,2.093805 3.672639,2.093615c2.294199,-0.000189 4.041596,-1.380145 3.67151,-2.899726z"/>
   <path stroke="null" id="svg_11" d="m48.195492,20.343454c6.956842,1.451758 14.374952,-1.149015 16.546919,-5.836774c2.167732,-4.678286 -1.726225,-9.65003 -8.697182,-11.104819c-6.954019,-1.451189 -14.374388,1.14769 -16.546919,5.836774c-2.167732,4.678286 1.726225,9.65003 8.697182,11.104819z"/>
   <g stroke="null" id="svg_13">
    <path stroke="null" id="svg_12" d="m74.754516,37.654665c-0.217366,-2.214863 -3.064014,-3.890362 -6.369671,-3.746001l-21.557629,0.953503l-6.280749,-7.813877l6.078909,4.630165l2.454824,-3.897751c1.006942,-1.598582 0.953024,-3.319737 0.052507,-4.810332c-0.674399,-0.082221 -1.34287,-0.190776 -2.002308,-0.328317c-3.912871,-0.816531 -7.17562,-2.524047 -9.304113,-4.843866c-4.575131,-1.060353 -9.598827,-0.915802 -14.038458,0.431568c-4.830325,1.466155 -8.528935,4.219058 -10.203783,7.594684l-10.764135,21.773523c-0.692466,1.400985 -0.917172,2.887034 -0.657744,4.352621l3.520765,19.88925l-5.01184,22.625291c-0.643629,2.905599 2.706348,5.532707 7.117467,5.532707c3.501287,-0.00019 6.56897,-1.720209 7.099118,-4.114292l5.154963,-23.268854c0.094568,-0.427021 0.103319,-0.860673 0.025971,-1.289399l-2.688846,-14.891551l4.434267,0.361471l6.260989,15.402689l-4.93308,22.26723c-0.64363,2.905599 2.706348,5.532896 7.117185,5.532896c3.501287,-0.00019 6.568971,-1.720209 7.0994,-4.114292l5.154963,-23.268855c0.146228,-0.660613 0.086664,-1.334298 -0.175304,-1.978619l-7.942329,-19.539146l3.706232,-5.884705c-1.719167,-0.634469 -3.027033,-1.723998 -3.528387,-3.04674l-4.053453,-10.660748l7.592285,9.445234c1.104332,1.374083 3.305658,2.205391 5.664503,2.10233l25.395974,-1.123251c3.300012,-0.145876 5.799157,-2.059703 5.581508,-4.274567z"/>
   </g>
  </g>
 </g>
</svg>