<svg width="100" height="100" xmlns="http://www.w3.org/2000/svg">

 <g>
  <title>background</title>
  <rect fill="none" id="canvas_background" height="102" width="102" y="-1" x="-1"/>
 </g>
 <g>
  <title>Layer 1</title>
  <g stroke="null" id="svg_12">
   <path stroke="null" id="svg_1" fill="#ffea92" d="m37.118897,8.662877c-0.360729,0.58077 -0.733415,1.152303 -0.777261,1.218975c0,0 0,0.000402 -0.000498,0.000402c-1.321842,1.651139 -2.839493,2.724721 -2.839493,2.724721s0,-0.000803 0,-0.000803c-2.125011,1.615795 -4.799585,2.635557 -7.645058,2.826738l-0.000996,0.002811c-0.629282,0.120492 -0.376673,0.664311 -0.376673,0.664311c0.54209,0.765926 0.736903,1.211746 0.736903,1.211746c1.054783,2.039926 1.421989,4.397148 0.89086,6.811402c-0.646721,2.93518 -2.503677,5.421328 -5.01682,7.124279l0.003488,0.001607c-0.497746,0.667525 0.234175,0.903689 0.234175,0.903689l-0.000498,0.002008c4.558435,1.628246 7.571317,5.503262 7.692391,9.895992l0.001993,-0.001607c0.374181,0.614107 1.018411,0.223311 1.018411,0.223311l0.000996,0.00241c2.648666,-1.506148 5.88227,-2.196566 9.166695,-1.724639c2.718918,0.390795 5.06515,1.519803 6.8384,3.116721l0.001993,-0.001205s0.394609,0.307254 1.019407,1.047074l0.000996,-0.000803s0.583444,0.379148 1.038839,-0.151418l0.004484,0.004016c1.672605,-3.473779 5.139388,-6.024188 9.186127,-6.88691c0.458883,-0.086352 0.925239,-0.149008 1.39608,-0.190779l-0.000498,-0.002008s0.743878,-0.130131 0.599388,-0.833803c-0.033382,-0.048197 -0.066765,-0.097197 -0.100147,-0.146598c-0.002491,-0.001205 -0.004982,-0.002811 -0.007474,-0.004418c-0.017439,-0.026508 -0.031888,-0.054623 -0.048828,-0.081131c-0.128049,-0.194393 -0.248624,-0.391598 -0.338806,-0.565508l0.000498,0c-0.236168,-0.4165 -0.354252,-0.694434 -0.354252,-0.694434l0.000498,-0.000402c-0.156947,-0.340992 0.060786,-0.737008 0.466855,-0.848664l5.889245,-1.623025l1.157919,-5.407672l-4.903718,-3.208295c-0.338308,-0.221303 -0.380658,-0.659893 -0.089186,-0.945459c0.358238,-0.351033 0.742384,-0.679574 1.142972,-0.990041c0,0 -0.002491,-0.00241 -0.002491,-0.00241s1.134004,-1.094467 -0.167908,-1.764803c-3.625722,-1.610172 -6.103989,-4.708418 -6.660527,-8.281l-0.003986,0c-0.320869,-1.39891 -2.076681,-0.737811 -2.076681,-0.737811c-2.383102,1.053902 -5.125437,1.486467 -7.904145,1.087238c-3.15239,-0.453049 -5.807533,-1.895336 -7.645556,-3.91277c-0.406069,-0.447828 -1.205751,-0.379951 -1.528115,0.138967z"/>
   <path stroke="null" id="svg_2" fill="#f9cfcf" d="m92.810631,1.803279l-33.243843,0c-1.831047,0 -3.5186,0.798861 -4.409959,2.088123l-15.771419,22.799057c-0.526146,0.760705 -0.735907,1.637484 -0.597893,2.50141l8.986331,56.326705c0.140505,0.880393 -0.452904,1.731066 -1.459855,2.091336l-1.857952,0.665115c-0.074238,0.022893 -0.148477,0.045787 -0.223213,0.06868l-19.444973,5.037361c-0.91378,0.236566 -1.533595,0.922164 -1.533595,1.696123l0,1.337861c0,0.984016 0.989513,1.781672 2.210211,1.781672l5.891737,0l15.017576,0l8.47015,0l3.782669,0l3.059219,0c1.373161,0 2.554996,-0.781189 2.824048,-1.866418c0.609353,-2.458033 0.377669,-5.003221 -0.670637,-7.362852l-1.186319,-2.670098l-0.121572,-0.903689c-0.0284,-0.212467 -0.036372,-0.426943 -0.022919,-0.640615l2.858426,-46.349983c0.063775,-1.032213 0.612342,-2.00659 1.534094,-2.724721l0.976558,-0.760705l25.709396,-20.988869c0.524651,-0.428549 0.819113,-1.006107 0.819113,-1.608164l0,-9.23168c-0.000498,-0.710098 -0.714482,-1.285648 -1.595378,-1.285648z"/>
   <path stroke="null" id="svg_3" fill="#f9a7a7" d="m47.556115,23.14077c1.170874,0.435377 1.752823,1.508156 1.353231,2.49659c-0.424504,1.050689 -0.540097,2.166844 -0.336813,3.259705l0.988516,5.316902c0.208266,1.11977 -0.748861,2.163229 -2.137965,2.331115l-0.654195,0.079123c-1.169379,0.141377 -2.304877,-0.385574 -2.740841,-1.27159l-1.110586,-2.256811c-0.970081,-1.971246 -1.042825,-4.156164 -0.205775,-6.16677l0.58743,-1.411361c0.046337,-0.110852 0.104133,-0.218492 0.172891,-0.321311l0.781247,-1.167566c0.637254,-0.952287 2.083657,-1.341074 3.30286,-0.888025z"/>
   <path stroke="null" id="svg_4" fill="#e0ebfc" d="m60.838804,41.886082l-0.046835,-2.720705c-0.010961,-0.628967 -0.392616,-1.216566 -1.027878,-1.581656c-0.434967,-0.24982 -0.95912,-0.378746 -1.493238,-0.366295l-9.012239,0.207246c-0.236666,0.005623 -0.470841,0.038557 -0.695549,0.098l-0.716973,0.189975c-0.884383,0.234557 -1.528115,0.85268 -1.660648,1.595713l-0.354252,1.980885c-0.068758,0.38477 0.004484,0.777172 0.211256,1.128205l1.481778,2.520287c0.092175,0.157041 0.158442,0.322918 0.196806,0.494016l0.442441,1.967229c0.016442,0.072697 0.027403,0.146197 0.033881,0.220098l3.196236,38.370615c0.070751,0.850672 0.94766,1.511369 2.005433,1.511369l4.045244,0c1.111583,0 2.01191,-0.727369 2.009917,-1.623426l-0.099151,-38.739319l0.086196,-1.807377c0.01146,-0.235762 0.074737,-0.468311 0.187838,-0.686l1.0214,-1.970041c0.128547,-0.249418 0.19282,-0.518115 0.188336,-0.78882z"/>
   <path stroke="null" id="svg_5" fill="#e0ebfc" d="m60.192084,90.969221l-0.593409,-0.724959c-0.445928,-0.545426 -1.294936,-0.883607 -2.216688,-0.883607l-4.726842,0c-0.51917,0 -1.034355,0.061049 -1.522136,0.180336l-18.730989,4.581098l-0.245634,0.047393c-0.044842,0.008836 -0.089684,0.018877 -0.133031,0.030123l-1.455371,0.386779c-0.477318,0.126918 -0.784236,0.406861 -0.784236,0.716123c0,0.43377 0.595402,0.785205 1.329814,0.785205l24.884304,0c2.389579,0 4.326254,-1.143869 4.326254,-2.554828l0,-2.228697c0.000498,-0.12009 -0.049824,-0.232549 -0.132035,-0.334967z"/>
   <g stroke="null" id="svg_6" fill="#3762cc">
    <path stroke="null" id="svg_7" d="m61.685819,99l-36.221848,0c-1.76777,0 -3.206699,-1.159533 -3.206699,-2.584951l0,-1.337861c0,-1.127 0.894348,-2.115836 2.225158,-2.460844l19.593948,-5.083951l1.83304,-0.656279c0.608356,-0.21809 0.960615,-0.722549 0.875415,-1.255123l-8.985832,-56.326705c-0.163922,-1.027393 0.09068,-2.090934 0.716475,-2.995025l15.771419,-22.799057c1.066242,-1.541893 3.089612,-2.500205 5.279893,-2.500205l33.243843,0c1.428964,0 2.591368,0.937025 2.591368,2.088926l0,9.231279c0,0.818541 -0.393115,1.59009 -1.106102,2.172467l-25.709894,20.98927l-0.993499,0.773959c-0.742384,0.578361 -1.179842,1.355533 -1.231161,2.186926l-2.858426,46.349983c-0.010463,0.170697 -0.004484,0.343402 0.018435,0.514098l0.108617,0.808902l1.14646,2.580131c1.10959,2.496992 1.354726,5.191188 0.709998,7.791c-0.36023,1.456344 -1.959096,2.513057 -3.800606,2.513057zm-2.119032,-96.393442c-1.468325,0 -2.824546,0.642221 -3.539526,1.676041l-15.771419,22.799057c-0.419023,0.606074 -0.589921,1.318984 -0.479809,2.007795l8.986331,56.326705c0.195312,1.223393 -0.644728,2.427508 -2.043299,2.928352l-1.858451,0.665115c-0.01694,0.006025 -0.033881,0.011648 -0.051319,0.016869l-0.223213,0.068279c-0.015944,0.00482 -0.031888,0.009238 -0.04833,0.013656l-19.444973,5.037361c-0.503725,0.130533 -0.842033,0.504861 -0.842033,0.931l0,1.337861c0,0.539402 0.544581,0.978393 1.213723,0.978393l36.221848,0c0.894846,0 1.671609,-0.513295 1.846991,-1.220582c0.573977,-2.314648 0.355248,-4.712434 -0.631774,-6.934705l-1.186319,-2.669697c-0.026407,-0.059443 -0.043845,-0.121697 -0.052316,-0.184754l-0.121572,-0.903689c-0.033881,-0.254238 -0.043347,-0.511689 -0.027902,-0.766328l2.858426,-46.350385c0.07673,-1.240262 0.728931,-2.398992 1.837026,-3.262115l0.976558,-0.761107l25.692456,-20.975615c0.342792,-0.279943 0.531626,-0.650656 0.531626,-1.044262l0,-9.230877c0,-0.265885 -0.268554,-0.482369 -0.598391,-0.482369l-33.244342,0z"/>
    <path stroke="null" id="svg_8" d="m57.443769,88.304344l-4.045244,0c-1.576444,0 -2.893802,-0.993254 -2.99943,-2.261229l-3.196236,-38.370615c-0.003488,-0.04418 -0.010463,-0.087959 -0.01993,-0.130533l-0.442441,-1.967229c-0.022919,-0.101213 -0.062281,-0.199615 -0.116589,-0.292393l-1.482276,-2.52109c-0.291473,-0.495221 -0.394111,-1.044262 -0.296953,-1.586877l0.354252,-1.980885c0.187838,-1.051893 1.083183,-1.912205 2.335768,-2.243959l0.717472,-0.190377c0.315389,-0.083541 0.644728,-0.12973 0.978053,-0.137762l9.012239,-0.207648c0.747864,-0.019279 1.492241,0.165877 2.100099,0.514902c0.890362,0.51209 1.430957,1.343885 1.446403,2.22468l0.046337,2.721107c0.006975,0.382762 -0.083207,0.756689 -0.266561,1.110131l-1.0214,1.970041c-0.067263,0.129328 -0.104631,0.266287 -0.111108,0.406459l-0.086196,1.807779l0.100147,38.706787c0.001495,0.648246 -0.310406,1.257934 -0.878404,1.716607s-1.323835,0.712107 -2.128001,0.712107zm0.895345,-50.284844c-0.013453,0 -0.026905,0 -0.040358,0.000402l-9.011741,0.207648c-0.140505,0.003615 -0.280013,0.022893 -0.413044,0.058238l-0.717472,0.190377c-0.528637,0.140172 -0.906306,0.502852 -0.985527,0.946664l-0.354252,1.980885c-0.040856,0.228934 0.002491,0.46068 0.125059,0.669533l1.481778,2.520689c0.129543,0.220098 0.223213,0.453852 0.277024,0.694434l0.442441,1.967229c0.022919,0.102418 0.039361,0.205639 0.047831,0.310066l3.196236,38.369811c0.035375,0.426943 0.479311,0.76191 1.010937,0.76191l4.045244,0c0.271045,0 0.525648,-0.085148 0.716973,-0.239779c0.191824,-0.155033 0.296953,-0.36027 0.296455,-0.578762l-0.099151,-38.739319l0.087193,-1.83991c0.015944,-0.332557 0.104631,-0.657484 0.264069,-0.964336l1.0214,-1.970041c0.077228,-0.149008 0.115094,-0.306451 0.112105,-0.467508c0,-0.000402 0,-0.000402 0,-0.000803l-0.046337,-2.720705c-0.006477,-0.371918 -0.234673,-0.722951 -0.610349,-0.939033c-0.245634,-0.140975 -0.544581,-0.217689 -0.846517,-0.217689z"/>
    <path stroke="null" id="svg_9" d="m55.998363,96.891393l-24.884304,0c-1.304403,0 -2.326302,-0.697648 -2.326302,-1.588484c0,-0.6615 0.576468,-1.24227 1.468824,-1.479238l1.454873,-0.386779c0.073242,-0.019279 0.143494,-0.035344 0.214245,-0.048598l0.215241,-0.04177l18.702589,-4.574672c0.583942,-0.142582 1.193295,-0.214877 1.811616,-0.214877l4.726842,0c1.252087,0 2.419972,0.477148 3.048756,1.24468l0.593409,0.725361c0.000996,0.001607 0.002491,0.003213 0.003488,0.00482c0.191824,0.238172 0.293466,0.505262 0.293466,0.772754l0,2.228697c0,1.882885 -2.337761,3.358107 -5.322742,3.358107zm-24.874339,-1.606557l24.874339,0c1.805138,0 3.329765,-0.802074 3.329765,-1.751549l0,-2.16082l-0.561023,-0.685598c-0.259585,-0.317697 -0.803668,-0.522934 -1.385119,-0.522934l-4.726842,0c-0.422013,0 -0.83705,0.049 -1.233154,0.145795l-18.730491,4.5815c-0.018933,0.00482 -0.037867,0.008434 -0.057298,0.012451l-0.303431,0.060246l-1.206747,0.32091z"/>
   </g>
   <path stroke="null" id="svg_10" fill="#e0ebfc" d="m94.40551,3.088926c0,-0.710098 -0.713984,-1.285648 -1.594879,-1.285648l-10.818374,0l-2.895297,2.193754l-5.561899,3.740066l-14.767955,10.320525c-1.168881,0.816934 -2.648666,1.313762 -4.195714,1.332238c-0.762313,0.009238 -1.448396,0.368705 -1.725419,0.939434l-2.330786,4.800393c-0.198301,0.408066 -0.271045,0.848664 -0.212252,1.284443l0.843029,6.243082c0.19581,1.451525 1.740367,2.539164 3.550986,2.501008l3.595329,-0.075508c1.208242,-0.025303 2.313347,-0.554262 2.91971,-1.397303l3.463793,-4.815254c0.13901,-0.193189 0.221719,-0.409672 0.242147,-0.63218l0.121073,-1.32541c0.074737,-0.820148 0.550061,-1.582861 1.321343,-2.121057l3.417955,-2.384934l14.937358,-10.644647c0.004982,-0.003615 0.008968,-0.00723 0.013453,-0.010844l6.295813,-4.487516l3.380586,-2.44759l0,-1.727049z"/>
   <path stroke="null" id="svg_11" fill="#3762cc" d="m54.605771,35.962303c-2.26153,0.000402 -4.204682,-1.3965 -4.450815,-3.218336l-0.843029,-6.243082c-0.075733,-0.561492 0.018933,-1.137041 0.275031,-1.663992l2.330786,-4.800393c0.420518,-0.866336 1.455869,-1.435459 2.637704,-1.449918c1.268529,-0.015262 2.532077,-0.41891 3.558459,-1.136238l14.767955,-10.320123l5.553429,-3.734844l2.873872,-2.177287c0.185347,-0.140172 0.429486,-0.21809 0.683093,-0.21809l10.818374,0c1.428964,0 2.591368,0.937025 2.591368,2.088926l0,1.726648c0,0.22773 -0.120077,0.445016 -0.330834,0.597639l-3.380586,2.447992l-6.281363,4.477074c-0.01146,0.008836 -0.022919,0.017672 -0.033382,0.025303l-14.937358,10.644647l-3.425428,2.390557c-0.57597,0.402041 -0.923745,0.960721 -0.979548,1.572418l-0.121073,1.325811c-0.031389,0.342197 -0.160933,0.679574 -0.374181,0.976385l-3.464291,4.814852c-0.773773,1.076393 -2.212702,1.764803 -3.755764,1.797336l-3.595329,0.075508c-0.038863,0.000803 -0.078224,0.001205 -0.117087,0.001205zm27.781095,-33.355746l-2.60781,1.975664c-0.014449,0.010844 -0.028898,0.021689 -0.043845,0.03173l-5.561899,3.740066l-14.753506,10.310082c-1.380634,0.964738 -3.097085,1.507754 -4.833466,1.529041c-0.369199,0.004418 -0.688075,0.173107 -0.812636,0.428549l-2.330786,4.800393c-0.13901,0.28677 -0.190827,0.599246 -0.149473,0.904492l0.843029,6.243484c0.13901,1.028598 1.264544,1.801352 2.533571,1.784885l3.595329,-0.075508c0.855983,-0.018074 1.65417,-0.400033 2.083657,-0.996869l3.464291,-4.815254c0.062779,-0.087959 0.101144,-0.187566 0.11061,-0.288779l0.121073,-1.32541c0.094666,-1.039041 0.685584,-1.98691 1.662641,-2.668893l3.417456,-2.384934l14.91145,-10.626172c0.009467,-0.007631 0.019432,-0.014459 0.02541,-0.019279l6.30229,-4.492336l3.044271,-2.204197l0,-1.368385c0,-0.265885 -0.268554,-0.482369 -0.598391,-0.482369l-10.423267,0zm12.018644,2.209016l0.004982,0l-0.004982,0z"/>
  </g>
 </g>
</svg>