<svg width="100" height="100" xmlns="http://www.w3.org/2000/svg">

 <g>
  <title>background</title>
  <rect fill="none" id="canvas_background" height="102" width="102" y="-1" x="-1"/>
 </g>
 <g>
  <title>Layer 1</title>
  <g stroke="null" id="svg_1">
   <path stroke="null" id="svg_2" d="m19.79873,22.655172l6.629985,-19.655172l-17.872783,0l-4.350928,22.931034l9.872048,0l-4.783534,31.508878c-0.064642,0.430776 0.1326,0.730517 0.255254,0.871379s0.394484,0.378362 0.833721,0.378362c0.429292,0 0.822118,-0.248966 1.001128,-0.633879l16.417501,-35.400602l-8.002392,0z"/>
   <path stroke="null" id="svg_3" d="m86.869318,15.95931c-8.479751,-8.356724 -19.780561,-12.95931 -31.822271,-12.95931l-1.087318,0c-11.140033,0 -21.534192,4.895776 -28.568606,13.431034l-0.994498,2.948276l8.570913,0l-14.476573,31.214051c1.269642,4.591121 3.35643,8.859569 6.252076,12.675948l5.973617,7.870258c4.060866,5.349483 6.298486,11.979827 6.298486,18.670775l0,8.189655l6.629985,0l0,-16.37931c0,-4.515776 3.717764,-8.189655 8.287481,-8.189655l13.25997,0c2.741499,0 4.972489,-2.204655 4.972489,-4.913793s-2.23099,-4.913793 -4.972489,-4.913793l-24.862444,0c-3.656437,0 -6.629985,-2.938448 -6.629985,-6.551724s2.973548,-6.551724 6.629985,-6.551724l21.547452,0c0.91328,0 1.657496,-0.733793 1.657496,-1.637931s-0.744216,-1.637931 -1.657496,-1.637931l-24.862444,0c-5.484655,0 -9.944978,-4.407672 -9.944978,-9.827586c0,-4.998965 3.798982,-9.129827 8.693568,-9.740776c-0.258569,-1.097414 -0.406087,-2.219396 -0.406087,-3.362672c0,-8.129051 6.69297,-14.741379 14.917467,-14.741379c5.496258,0 10.420679,2.945 13.027921,7.606552c1.599484,-0.678103 3.358087,-1.054828 5.204538,-1.054828c7.311216,0 13.25997,5.878534 13.25997,13.103448c0,0.556897 -0.064642,1.103965 -0.135915,1.651034c0.04641,0 0.089505,-0.013103 0.135915,-0.013103c4.569717,0 8.287481,3.673879 8.287481,8.189655s-3.717764,8.189655 -8.287481,8.189655l-15.222446,0c0.18564,0.51431 0.304979,1.061379 0.304979,1.637931c0,2.709138 -2.23099,4.913793 -4.972489,4.913793l-21.547452,0c-1.828218,0 -3.314993,1.469224 -3.314993,3.275862s1.486774,3.275862 3.314993,3.275862l24.862444,0c4.569717,0 8.287481,3.673879 8.287481,8.189655s-3.717764,8.189655 -8.287481,8.189655l-13.25997,0c-2.741499,0 -4.972489,2.204655 -4.972489,4.913793l0,16.37931l16.574963,0l0,-0.646983c0,-2.712414 0.558576,-5.408448 1.586224,-7.921034l-11.932316,-2.948276l0.803886,-3.175948l17.599296,4.347069c1.388982,0.343966 2.819401,0.517586 4.249821,0.517586c9.664861,0 17.528023,-7.770345 17.528023,-17.32112l0,-9.898017l6.629985,-3.275862l0,-10.44181c0,-11.822586 -4.662537,-22.929396 -13.130686,-31.276292z"/>
   <path stroke="null" id="svg_4" d="m37.015144,30.844827c-3.656437,0 -6.629985,2.938448 -6.629985,6.551724s2.973548,6.551724 6.629985,6.551724l44.7524,0c2.741499,0 4.972489,-2.204655 4.972489,-4.913793s-2.23099,-4.913793 -4.972489,-4.913793s-4.972489,2.204655 -4.972489,4.913793l-3.314993,0c0,-3.203793 1.889546,-5.955517 4.60784,-7.300258c0.222105,-0.822241 0.364649,-1.665776 0.364649,-2.527328c0,-5.419914 -4.460323,-9.827586 -9.944978,-9.827586c-5.012269,0 -9.157667,3.685345 -9.837241,8.455c2.796196,0.769828 4.864752,3.280776 4.864752,6.286379l-3.314993,0c0,-1.806638 -1.486774,-3.275862 -3.314993,-3.275862s-3.314993,1.469224 -3.314993,3.275862l-3.314993,0c0,-3.074396 2.161375,-5.641034 5.055364,-6.345345c0.402772,-3.641121 2.32381,-6.828534 5.118349,-8.951293c-2.015515,-3.672241 -5.869194,-5.996465 -10.173712,-5.996465c-6.397936,0 -11.602474,5.144741 -11.602474,11.465517c0,1.213707 0.197242,2.396293 0.570179,3.533017c4.413913,1.004052 7.717303,4.908879 7.717303,9.570431l-3.314993,0c0,-3.613276 -2.973548,-6.551724 -6.629985,-6.551724z"/>
  </g>
 </g>
</svg>