<svg width="500" height="300" xmlns="http://www.w3.org/2000/svg" xmlns:xlink="http://www.w3.org/1999/xlink">
 <defs>
  <linearGradient y2="3.917061" x2="1.041682" y1="-0.17149" x1="0.417838" id="linear-gradient">
   <stop stop-opacity="0" stop-color="#fff" offset="0"/>
   <stop stop-color="#fff" offset="0.99"/>
  </linearGradient>
  <linearGradient xlink:href="#linear-gradient" y2="350.86" x2="354.86" y1="511.1" x1="353.09" id="linear-gradient-2"/>
  <linearGradient y2="2.313672" x2="0.480818" y1="-15.579979" x1="0.67" id="linear-gradient-3">
   <stop stop-color="#00272e" offset="0.17"/>
   <stop stop-opacity="0" stop-color="#69b9eb" offset="1"/>
  </linearGradient>
  <linearGradient y2="0.438727" x2="-0.016435" y1="0.556464" x1="1.0131" id="linear-gradient-8">
   <stop stop-color="#68e1fd" offset="0"/>
   <stop stop-color="#fff" offset="1"/>
  </linearGradient>
  <linearGradient xlink:href="#linear-gradient" y2="503.09" x2="57.02" y1="503.09" x1="428.28" id="linear-gradient-9"/>
  <linearGradient y2="0.500003" x2="1.000011" y1="0.500003" x1="0.000006" id="linear-gradient-10">
   <stop stop-color="#68e1fd" offset="0"/>
   <stop stop-color="#69b9eb" offset="1"/>
  </linearGradient>
  <linearGradient xlink:href="#linear-gradient-10" y2="461.29" x2="554.51" y1="461.29" x1="553.11" id="linear-gradient-11"/>
  <linearGradient xlink:href="#linear-gradient-10" y2="468.86" x2="557.9" y1="468.86" x1="557.44" id="linear-gradient-12"/>
  <linearGradient y2="0.414319" x2="-0.360739" y1="0.559787" x1="1.110262" id="linear-gradient-15">
   <stop stop-color="#ecc4d7" offset="0"/>
   <stop stop-color="#efd4d1" offset="0.42"/>
   <stop stop-color="#f2eac9" offset="1"/>
  </linearGradient>
  <linearGradient xlink:href="#linear-gradient-15" gradientTransform="translate(-327.44 1239.03) rotate(-26.82)" y2="-475.71" x2="1007.74" y1="-473.84" x1="1030.48" id="linear-gradient-16"/>
  <linearGradient xlink:href="#linear-gradient-15" gradientTransform="matrix(1, 0, 0, -1, 0, 600)" y2="471.34" x2="398.89" y1="471.15" x1="415.22" id="linear-gradient-17"/>
  <linearGradient xlink:href="#linear-gradient-15" gradientTransform="matrix(1, 0, 0, -1, 0, 600)" y2="459.31" x2="360.88" y1="478.04" x1="405.36" id="linear-gradient-18"/>
  <linearGradient xlink:href="#linear-gradient-15" gradientTransform="matrix(1, 0, 0, -1, 0, 600)" y2="499.06" x2="388.4" y1="503.57" x1="425.28" id="linear-gradient-19"/>
  <linearGradient xlink:href="#linear-gradient-15" gradientTransform="translate(-1.42 -170.05)" y2="387.64" x2="403.35" y1="387.64" x1="367.48" id="linear-gradient-20"/>
  <linearGradient y2="0.499846" x2="0.999998" y1="0.499846" x1="-0.000296" id="linear-gradient-21">
   <stop stop-color="#183866" offset="0"/>
   <stop stop-color="#1a7fc1" offset="1"/>
  </linearGradient>
  <linearGradient xlink:href="#linear-gradient-15" gradientTransform="translate(-1.42 -170.05)" y2="335.09" x2="338.64" y1="335.09" x1="314.8" id="linear-gradient-22"/>
  <linearGradient xlink:href="#linear-gradient" gradientTransform="translate(0 -170)" y2="428.79" x2="375.33" y1="312.14" x1="327.09" id="linear-gradient-23"/>
  <linearGradient xlink:href="#linear-gradient-15" gradientTransform="translate(-1.42 -170.05)" y2="335.09" x2="330.75" y1="335.09" x1="314.79" id="linear-gradient-24"/>
 </defs>
 <title>book_lover</title>
 <g>
  <title>background</title>
  <rect fill="none" id="canvas_background" height="302" width="502" y="-1" x="-1"/>
 </g>
 <g>
  <title>Layer 1</title>
  <path stroke="null" id="svg_7" fill="url(#linear-gradient)" d="m310.088654,41.308587l-30.129635,0l-8.943744,-7.473142l-0.396443,-0.337388l30.010702,0c2.656165,0 8.099322,2.435941 9.185574,5.884045a18.093639,15.398383 0 0 1 0.273545,1.926485z"/>
  <g stroke="null" id="svg_97">
   <path stroke="null" id="svg_3" fill="#68e1fd" d="m249.542915,70.348196s-7.681014,29.488672 -19.160739,37.716029c-11.851238,8.490492 -24.14829,-7.823883 -24.14829,-7.823883l-6.845111,11.683198s12.659277,19.296573 25.420719,19.743902s23.962534,-10.341209 23.962534,-10.341209l0.770888,-50.978037z"/>
   <polygon stroke="null" id="svg_4" fill="#3f3d56" points="183.94322916985496,50.09554708765211 185.6800021758518,49.36754614775384 221.08515934962819,57.86684901368619 231.7196925685803,125.5802628771072 230.39152216705227,125.5802628771072 183.94322916985496,50.09554708765211 "/>
   <path stroke="null" id="svg_6" fill="#68e1fd" d="m496.598494,274.91818s-2.591297,20.366655 -19.253617,22.366482l-73.187894,0l-10.411628,-113.069145l77.088771,0c6.222829,0 18.974983,6.332784 21.519841,15.296919a41.070668,38.786111 0 0 1 0.67801,5.02588l0,0c1.708956,17.393229 3.566517,70.379863 3.566517,70.379863z"/>
   <path stroke="null" id="svg_8" fill="#68e1fd" d="m25.911176,194.74092l-6.89155,-2.833088a4.253814,4.017196 0 0 1 1.699668,-7.701087l373.026062,0a30.649752,28.944859 0 0 1 24.083275,10.700827a21.584856,20.384198 0 0 1 4.643902,9.648286c1.681092,10.586801 0.650146,56.696839 0.185756,74.011128c-0.250771,9.402694 -7.588136,17.542339 -17.470359,18.665049l-1.05881,0.096483l-361.295566,0l-16.922378,-102.587598z"/>
   <path stroke="null" id="svg_9" fill="#68e1fd" d="m25.911176,194.74092l-6.89155,-2.833088a4.253814,4.017196 0 0 1 1.699668,-7.701087l373.026062,0a30.649752,28.944859 0 0 1 24.083275,10.700827a21.584856,20.384198 0 0 1 4.643902,9.648286c1.681092,10.586801 0.650146,56.696839 0.185756,74.011128c-0.250771,9.402694 -7.588136,17.542339 -17.470359,18.665049l-1.05881,0.096483l-361.295566,0l-16.922378,-102.587598z"/>
   <path stroke="null" id="svg_10" fill="url(#linear-gradient-2)" d="m422.686152,278.523131c-0.250771,9.402694 -7.588136,17.542339 -17.470359,18.665049l-1.05881,0.096483l-361.295566,0l-16.950242,-102.543742l-6.89155,-2.833088a4.253814,4.017196 0 0 1 1.699668,-7.701087l373.026062,0a30.649752,28.944859 0 0 1 24.083275,10.700827a21.584856,20.384198 0 0 1 4.643902,9.648286c1.681092,10.542946 0.67801,56.652983 0.213619,73.967272z"/>
   <path stroke="null" id="svg_11" fill="url(#linear-gradient-3)" opacity="0.61" d="m7.205539,297.363603l398.261025,0a5.20117,4.911855 0 0 0 5.20117,-4.903084l0,0a5.20117,4.911855 0 0 0 -5.20117,-4.911855l-398.261025,0a5.20117,4.911855 0 0 0 -5.20117,4.911855l0,0a5.20117,4.911855 0 0 0 5.20117,4.903084z"/>
   <path stroke="null" id="svg_12" fill="#68e1fd" d="m7.205539,297.363603l398.261025,0a5.20117,4.911855 0 0 0 5.20117,-4.903084l0,0a5.20117,4.911855 0 0 0 -5.20117,-4.911855l-398.261025,0a5.20117,4.911855 0 0 0 -5.20117,4.911855l0,0a5.20117,4.911855 0 0 0 5.20117,4.903084z"/>
   <path stroke="null" id="svg_33" fill="#68e1fd" d="m301.796098,285.197991l95.199989,0a28.977948,27.366049 0 0 1 -13.002925,2.876944l-353.976777,0a28.402104,26.822236 0 0 1 -16.383686,-4.745203a24.90989,23.524276 0 0 1 -3.780136,-3.026053c-0.371512,-0.359618 -0.733736,-0.736778 -1.077385,-1.113939a24.269031,22.919066 0 0 1 -3.287883,-4.692576c-0.195044,-0.368389 -0.3808,-0.745549 -0.54798,-1.113939a22.030671,20.805214 0 0 1 -1.486049,-4.692576c-0.065015,-0.368389 -0.130029,-0.736778 -0.176468,-1.12271a23.368114,22.068262 0 0 1 -0.16718,-2.631351l0,-47.066095a15.129832,14.288235 0 0 1 0.055727,-1.49987c0.055727,-0.491185 0.065015,-0.745549 0.111454,-1.113939a22.290729,21.050807 0 0 1 1.198127,-4.692576c0.148605,-0.37716 0.306498,-0.745549 0.473678,-1.12271a22.875861,21.60339 0 0 1 2.897795,-4.683804l0.92878,-1.12271a25.355704,23.945293 0 0 1 2.201209,-2.140165a28.20706,26.638042 0 0 1 19.039998,-6.7538l353.976777,0a28.615723,27.023973 0 0 1 15.668525,4.385585l-97.865588,0a18.231959,17.217806 0 0 0 -4.420995,0.508728a17.061696,16.112638 0 0 0 -7.894633,4.069823a13.393013,12.648026 0 0 0 -1.105249,1.12271a14.637579,13.823363 0 0 0 -2.786341,4.683804a10.727413,10.130701 0 0 0 -0.325073,1.12271a13.792389,13.025187 0 0 0 -0.371512,3.026053l0,57.073999a14.043159,13.262008 0 0 0 0.287922,2.631351a10.439491,9.858794 0 0 0 0.29721,1.113939a14.349657,13.551457 0 0 0 2.582009,4.692576a15.612798,14.744336 0 0 0 1.030946,1.113939a16.588018,15.665309 0 0 0 5.637697,3.613722a17.916173,16.919586 0 0 0 7.068019,1.298133z"/>
   <path stroke="null" id="svg_34" fill="url(#linear-gradient-8)" d="m410.909217,218.21257l0,47.618679a4.35598,4.113678 0 0 1 -0.055727,0.806948c-0.055727,0.263135 0,0.535041 -0.074302,0.798176a4.755356,4.490839 0 0 0 -0.102166,0.728007c0,0.236822 -0.065015,0.37716 -0.102166,0.561355a1.532488,1.447243 0 0 1 -0.055727,0.280677c-0.046439,0.254364 -0.102166,0.517499 -0.16718,0.771863s-0.08359,0.333304 -0.139317,0.499957s-0.08359,0.324533 -0.139317,0.491185s-0.102166,0.350847 -0.157893,0.52627l-0.195044,0.535041a1.30958,1.236735 0 0 1 -0.148605,0.429787c-0.055727,0.140339 -0.148605,0.37716 -0.232195,0.561355l-0.250771,0.570126a2.052605,1.938428 0 0 1 -0.148605,0.306991a4.003043,3.780374 0 0 1 -0.204332,0.429787c-0.055727,0.122796 -0.130029,0.245593 -0.195044,0.368389s-0.195044,0.37716 -0.306498,0.552584s-0.315785,0.570126 -0.492254,0.877117l-0.287922,0.438558c-0.260059,0.403474 -0.529405,0.789405 -0.817327,1.166566c-0.148605,0.201737 -0.29721,0.385931 -0.445815,0.570126c-0.29721,0.37716 -0.612995,0.736778 -0.92878,1.096396s-0.705873,0.754321 -1.086673,1.113939a25.717929,24.287368 0 0 1 -2.424117,2.061225a0.120741,0.114025 0 0 1 -0.065015,0.052627c-0.278634,0.210508 -0.557268,0.403474 -0.84519,0.605211l-0.92878,0.605211l-0.92878,0.561355c-0.29721,0.175423 -0.594419,0.333304 -0.92878,0.499957l-1.068097,0.535041l-95.190701,0a18.111217,17.10378 0 0 1 -7.068019,-1.324447a16.764486,15.831961 0 0 1 -5.637697,-3.596179a15.612798,14.744336 0 0 1 -1.030946,-1.113939a14.228915,13.437432 0 0 1 -2.582009,-4.666262a9.807921,9.262355 0 0 1 -0.29721,-1.105167a14.043159,13.262008 0 0 1 -0.287922,-2.631351l0,-56.85472a13.578769,12.82345 0 0 1 0.371512,-3.008511a10.569521,9.981591 0 0 1 0.325073,-1.113939a14.507549,13.700567 0 0 1 2.786341,-4.657491a13.393013,12.648026 0 0 1 1.105249,-1.12271a17.293891,16.331917 0 0 1 7.894633,-4.05228a18.687061,17.647593 0 0 1 4.420995,-0.499957l97.865588,0c0.427239,0.263135 0.854478,0.535041 1.263141,0.82449l0.473678,0.333304a22.70868,21.445509 0 0 1 1.857561,1.456014l0.510829,0.456101l0.371512,0.350847l0.501541,0.491185l0.501541,0.52627l0.102166,0.114025l0.074302,0.087712c0.29721,0.333304 0.594419,0.684151 0.873054,1.034998c0.148605,0.175423 0.287922,0.359618 0.427239,0.535041a0.148605,0.140339 0 0 0 0.055727,0.070169q0.3808,0.508728 0.724449,1.026227l0.399376,0.613982c0.241483,0.385931 0.473678,0.789405 0.687297,1.184108c0.102166,0.210508 0.213619,0.403474 0.315785,0.605211s0.204332,0.421016 0.287922,0.622753s0.176468,0.368389 0.250771,0.561355s0.157893,0.368389 0.222907,0.552584l0.204332,0.552584a18.937832,17.884414 0 0 1 0.67801,2.32436a1.857561,1.754234 0 0 1 0.065015,0.306991a3.250731,3.069909 0 0 0 0.111454,0.552584c0,0.184195 0.102166,0.622753 0.148605,0.929744s0.092878,0.736778 0.111454,1.113939l0,0.59644c0,0.236822 0.027863,0.59644 0.027863,0.90343z"/>
   <path stroke="null" id="svg_35" fill="#68e1fd" d="m294.72808,283.864773c-2.099044,0.482414 -4.263102,0.920973 -6.501463,1.333218l-252.377491,0a115.057313,108.657247 0 0 1 -22.216427,-1.868259a24.90989,23.524276 0 0 1 -3.780136,-3.026053c-0.371512,-0.359618 -0.733736,-0.736778 -1.077385,-1.113939a24.269031,22.919066 0 0 1 -3.287883,-4.692576c-0.195044,-0.368389 -0.3808,-0.745549 -0.54798,-1.113939a22.030671,20.805214 0 0 1 -1.486049,-4.692576c-0.065015,-0.368389 -0.130029,-0.736778 -0.176468,-1.12271a23.368114,22.068262 0 0 1 -0.16718,-2.631351l0,-47.066095a15.129832,14.288235 0 0 1 0.055727,-1.49987c0.055727,-0.491185 0.065015,-0.745549 0.111454,-1.113939a22.290729,21.050807 0 0 1 1.198127,-4.692576c0.148605,-0.37716 0.306498,-0.745549 0.473678,-1.12271a22.875861,21.60339 0 0 1 2.897795,-4.683804l0.92878,-1.12271a25.355704,23.945293 0 0 1 2.201209,-2.140165a113.822035,107.490681 0 0 1 24.891314,-2.412072l259.426935,0l2.080468,0.508728a17.061696,16.112638 0 0 0 -7.894633,4.069823a13.393013,12.648026 0 0 0 -1.105249,1.12271a14.637579,13.823363 0 0 0 -2.786341,4.683804a10.727413,10.130701 0 0 0 -0.325073,1.12271a13.792389,13.025187 0 0 0 -0.371512,3.026053l0,57.073999a14.043159,13.262008 0 0 0 0.287922,2.631351a10.439491,9.858794 0 0 0 0.29721,1.113939a14.349657,13.551457 0 0 0 2.582009,4.692576a15.612798,14.744336 0 0 0 1.030946,1.113939a16.615881,15.691622 0 0 0 5.637697,3.622493z"/>
   <path stroke="null" id="svg_36" fill="url(#linear-gradient-9)" d="m294.72808,283.864773c-2.099044,0.482414 -4.263102,0.920973 -6.501463,1.333218l-252.377491,0a115.057313,108.657247 0 0 1 -22.216427,-1.868259a24.90989,23.524276 0 0 1 -3.780136,-3.026053c-0.371512,-0.359618 -0.733736,-0.736778 -1.077385,-1.113939a24.269031,22.919066 0 0 1 -3.287883,-4.692576c-0.195044,-0.368389 -0.3808,-0.745549 -0.54798,-1.113939a22.030671,20.805214 0 0 1 -1.486049,-4.692576c-0.065015,-0.368389 -0.130029,-0.736778 -0.176468,-1.12271a23.368114,22.068262 0 0 1 -0.16718,-2.631351l0,-47.066095a15.129832,14.288235 0 0 1 0.055727,-1.49987c0.055727,-0.491185 0.065015,-0.745549 0.111454,-1.113939a22.290729,21.050807 0 0 1 1.198127,-4.692576c0.148605,-0.37716 0.306498,-0.745549 0.473678,-1.12271a22.875861,21.60339 0 0 1 2.897795,-4.683804l0.92878,-1.12271a25.355704,23.945293 0 0 1 2.201209,-2.140165a113.822035,107.490681 0 0 1 24.891314,-2.412072l259.426935,0l2.080468,0.508728a17.061696,16.112638 0 0 0 -7.894633,4.069823a13.393013,12.648026 0 0 0 -1.105249,1.12271a14.637579,13.823363 0 0 0 -2.786341,4.683804a10.727413,10.130701 0 0 0 -0.325073,1.12271a13.792389,13.025187 0 0 0 -0.371512,3.026053l0,57.073999a14.043159,13.262008 0 0 0 0.287922,2.631351a10.439491,9.858794 0 0 0 0.29721,1.113939a14.349657,13.551457 0 0 0 2.582009,4.692576a15.612798,14.744336 0 0 0 1.030946,1.113939a16.615881,15.691622 0 0 0 5.637697,3.622493z"/>
   <path stroke="null" id="svg_37" fill="url(#linear-gradient-10)" d="m404.156984,288.688916a22.885148,21.612161 0 0 1 -2.424117,2.280504a25.866533,24.427707 0 0 0 2.424117,-2.280504z"/>
   <path stroke="null" id="svg_38" fill="url(#linear-gradient-11)" d="m406.590388,206.345177c-0.139317,-0.201737 -0.278634,-0.403474 -0.427239,-0.59644c-0.278634,-0.385931 -0.575844,-0.771863 -0.873054,-1.140252c0.46439,0.561355 0.900917,1.140252 1.300293,1.736692z"/>
   <path stroke="null" id="svg_39" fill="url(#linear-gradient-12)" d="m409.534622,212.125378c0.074302,0.201737 0.139317,0.403474 0.204332,0.605211c-0.120741,-0.412245 -0.269346,-0.815719 -0.427239,-1.219193c0.08359,0.201737 0.157893,0.403474 0.222907,0.613982z"/>
   <path stroke="null" id="svg_40" fill="#68e1fd" d="m410.909217,218.21257l0,48.144949a6.928702,6.543292 0 0 1 -0.092878,1.017456a21.231919,20.050893 0 0 1 -0.984507,4.245246c-0.111454,0.342076 -0.232195,0.67538 -0.371512,0.999913a25.29069,23.883894 0 0 1 -12.417794,12.577857l-111.230738,0c-8.581931,0 -15.668525,-5.47321 -16.718047,-12.560315a6.947277,6.560835 0 0 1 -0.111454,-1.017456a7.773892,7.341469 0 0 1 -0.046439,-0.877117l0,-56.802093c0,-7.990535 7.560272,-14.454887 16.903803,-14.454887l113.822035,0c6.845111,4.175077 11.24753,11.042902 11.24753,18.726447z"/>
   <path stroke="null" id="svg_41" fill="#fff" d="m406.163149,204.757596l-117.787927,0a13.393013,12.648026 0 0 1 1.105249,-1.12271l115.707459,0a10.876018,10.271039 0 0 1 0.975219,1.12271z"/>
   <path stroke="null" id="svg_42" fill="#fff" d="m409.534622,210.529025l-124.270814,0a10.727413,10.130701 0 0 1 0.325073,-1.12271l123.52779,0c0.120741,0.403474 0.278634,0.780634 0.417951,1.12271z"/>
   <path stroke="null" id="svg_43" fill="#fff" d="m410.862778,216.370624l-125.970482,0l0,-1.12271l125.868317,0c0,0.368389 0.074302,0.745549 0.102166,1.12271z"/>
   <rect stroke="null" id="svg_44" fill="#fff" height="1.12271" width="126.026209" y="221.054429" x="284.892296"/>
   <rect stroke="null" id="svg_45" fill="#fff" height="1.12271" width="126.026209" y="226.860943" x="284.892296"/>
   <rect stroke="null" id="svg_46" fill="#fff" height="1.12271" width="126.026209" y="232.667457" x="284.892296"/>
   <rect stroke="null" id="svg_47" fill="#fff" height="1.113939" width="126.026209" y="238.482742" x="284.892296"/>
   <rect stroke="null" id="svg_48" fill="#fff" height="1.113939" width="126.026209" y="244.289256" x="284.892296"/>
   <rect stroke="null" id="svg_49" fill="#fff" height="1.113939" width="126.026209" y="250.095771" x="284.892296"/>
   <rect stroke="null" id="svg_50" fill="#fff" height="1.113939" width="126.026209" y="255.902285" x="284.892296"/>
   <rect stroke="null" id="svg_51" fill="#fff" height="1.12271" width="126.026209" y="261.708799" x="284.892296"/>
   <path stroke="null" id="svg_52" fill="#fff" d="m410.927793,267.541627l0,1.12271l-126.035497,0l0,-1.12271l126.035497,0z"/>
   <path stroke="null" id="svg_53" fill="#fff" d="m409.07952,273.321827c0,0.37716 -0.510829,0.745549 -0.54798,1.12271l-123.054112,0a10.588096,9.999133 0 0 1 -0.29721,-1.12271l123.899302,0z"/>
   <path stroke="null" id="svg_54" fill="#fff" d="m292.898382,204.757596l-285.070561,0l0.92878,-1.12271l281.875556,0c0.780176,0.368389 1.532488,0.754321 2.266224,1.12271z"/>
   <path stroke="null" id="svg_55" fill="#fff" d="m290.334949,210.529025l-285.8786,0c0.148605,-0.37716 0.306498,-0.745549 0.473678,-1.12271l284.281097,0a13.597345,12.840992 0 0 1 1.123824,1.12271z"/>
   <path stroke="null" id="svg_56" fill="#fff" d="m293.492802,216.370624l-290.346033,0a8.359023,7.894052 0 0 1 0.111454,-1.113939l289.93737,0a8.767687,8.279984 0 0 1 0.29721,1.113939z"/>
   <rect stroke="null" id="svg_57" fill="#fff" height="1.113939" width="290.541077" y="221.054429" x="3.081754"/>
   <rect stroke="null" id="svg_58" fill="#fff" height="1.113939" width="290.541077" y="226.860943" x="3.081754"/>
   <rect stroke="null" id="svg_59" fill="#fff" height="1.12271" width="290.541077" y="232.667457" x="3.081754"/>
   <rect stroke="null" id="svg_60" fill="#fff" height="1.113939" width="290.541077" y="238.482742" x="3.081754"/>
   <rect stroke="null" id="svg_61" fill="#fff" height="1.105167" width="290.541077" y="244.298028" x="3.081754"/>
   <rect stroke="null" id="svg_62" fill="#fff" height="1.105167" width="290.541077" y="250.095771" x="3.081754"/>
   <rect stroke="null" id="svg_63" fill="#fff" height="1.113939" width="290.541077" y="255.902285" x="3.081754"/>
   <rect stroke="null" id="svg_64" fill="#fff" height="1.12271" width="290.541077" y="261.708799" x="3.081754"/>
   <path stroke="null" id="svg_65" fill="#fff" d="m293.195592,267.541627a10.69955,10.104387 0 0 1 -0.436527,1.12271l-289.34295,0c-0.065015,-0.368389 -0.130029,-0.736778 -0.176468,-1.12271l289.955946,0z"/>
   <path stroke="null" id="svg_66" fill="#fff" d="m289.248276,273.330598a17.451783,16.481027 0 0 1 -1.30958,1.113939l-282.469976,0c-0.195044,-0.368389 -0.3808,-0.745549 -0.54798,-1.113939l284.327536,0z"/>
   <path stroke="null" id="svg_67" opacity="0.2" fill="#3f3d56" d="m303.755825,184.215517c-4.188799,4.753974 -9.603589,9.534261 -11.749072,10.595573c-12.204174,6.069649 -26.340211,10.718369 -33.501108,21.857754c-9.064896,14.033871 -3.204292,32.391929 -7.365228,48.372999c-0.7616,2.912028 -1.941151,5.885455 -4.328117,7.894052s-6.222829,2.692749 -8.758399,0.877117c-2.229073,-1.587582 -2.786341,-4.464525 -3.204292,-7.069563a292.918755,276.625141 0 0 1 -0.408663,-74.160237c-13.931706,5.876684 -23.358826,18.279117 -30.798357,30.821889s-13.680935,25.988975 -24.046124,36.523149c-2.944234,2.982198 -6.817248,5.902997 -11.089638,5.3241c-5.136155,-6.139819 -2.442692,-15.112725 0.473678,-22.462965c5.842029,-14.805734 11.702633,-29.62901 19.262905,-43.662881c2.433405,-4.561008 5.136155,-9.139559 9.222789,-12.490145a23.516719,22.208601 0 0 1 3.603668,-2.429614l102.685958,0.008771z"/>
   <path stroke="null" id="svg_68" fill="#fff" d="m405.243657,279.137113c-0.315785,0.394703 -0.668722,0.701694 -1.021658,1.113939l-394.388011,0c-0.371512,-0.359618 -0.733736,-0.736778 -1.077385,-1.113939l396.487055,0z"/>
   <polygon stroke="null" id="svg_72" fill="url(#linear-gradient-15)" points="161.53166108643475,239.2984625445398 157.0920644177577,246.57854206722834 167.4015758227288,250.8149956343833 171.66475732291204,243.8857450122224 161.53166108643475,239.2984625445398 "/>
   <polygon stroke="null" id="svg_73" fill="url(#linear-gradient-16)" points="230.84655987069348,258.8494192358131 230.3635823028035,266.96270863179154 241.6018076313358,266.3487054630888 242.07556743204626,258.8494192358131 230.84655987069348,258.8494192358131 "/>
   <path stroke="null" id="svg_74" fill="#3f3d56" d="m159.116857,244.964636a3.900878,3.683891 0 0 0 -0.92878,-1.166566a3.436487,3.245333 0 0 0 -1.5232,-0.52627l-17.841871,-3.385671a7.430243,7.016936 0 0 0 -1.969014,-0.201737c-1.708956,0.105254 -3.111414,1.289362 -4.235239,2.508554a3.854439,3.640035 0 0 0 -1.170263,2.17525a4.021619,3.797916 0 0 0 1.634653,2.631351a45.770297,43.224323 0 0 0 3.947317,3.087452a82.447834,77.861671 0 0 0 8.238282,4.79783c1.913288,1.017456 3.826575,2.034911 5.786302,2.964655c3.222868,1.526183 6.566477,2.806774 9.928662,4.05228a0.984507,0.929744 0 0 0 1.356019,-0.29822l0,0a27.185402,25.673213 0 0 0 5.646985,-8.297526c0.325073,-0.763092 0.92878,-2.438385 0,-3.069909c-0.325073,-0.219279 -1.244566,-0.184195 -1.653229,-0.271906a11.609755,10.963962 0 0 1 -7.225911,-4.990795l0.009288,-0.008771z"/>
   <path stroke="null" id="svg_75" fill="#3f3d56" d="m231.506,263.278838a4.105209,3.876857 0 0 0 -1.421034,-0.570126a3.612956,3.411985 0 0 0 -1.597502,0.263135l-17.219588,5.55215a7.48597,7.069563 0 0 0 -1.857561,0.754321c-1.421034,0.877117 -2.006166,2.631351 -2.331239,4.183848a3.770848,3.561095 0 0 0 0.157893,2.429614a3.984468,3.762832 0 0 0 2.786341,1.482328a42.138766,39.794796 0 0 0 5.052565,0.789405a79.986566,75.537311 0 0 0 9.668604,0.236822c2.201209,0 4.393131,-0.052627 6.585053,-0.184195c3.603668,-0.210508 7.179472,-0.692922 10.736701,-1.210421a0.984507,0.929744 0 0 0 1.021658,-0.877117a27.44546,25.918806 0 0 0 0.473678,-9.858794c-0.130029,-0.815719 -0.529405,-2.534868 -1.653229,-2.631351c-0.399376,-0.043856 -1.170263,0.429787 -1.569639,0.543813a10.48593,9.90265 0 0 1 -1.857561,0.368389a11.54474,10.902564 0 0 1 -6.975141,-1.27182z"/>
   <path stroke="null" id="svg_76" opacity="0.18" fill="#68e1fd" d="m102.238347,28.965818"/>
   <path stroke="null" id="svg_77" fill="#3f3d56" d="m301.220255,153.867271s-2.91637,25.778467 -28.077031,30.348246c-17.033832,3.07868 -37.866376,1.982284 -49.531857,0.956057a15.018379,14.182981 0 0 0 -14.08031,6.552064l-36.222435,54.486504l-10.495218,-4.789059l-0.08359,0l-3.715122,-1.684065l30.157499,-66.494235a31.866455,30.093882 0 0 1 20.080232,-17.437085l34.652796,-10.130701l8.098965,-2.368216s32.442299,-3.087452 49.216072,10.560488z"/>
   <path stroke="null" id="svg_78" opacity="0.24" fill="#fff" d="m243.970232,145.622372l2.275512,4.552237s-39.937556,11.051673 -44.841517,16.4284c-6.547902,7.192359 -38.553673,74.774219 -38.553673,74.774219l-0.08359,0l-3.715122,-1.684065l30.120348,-66.45038a31.866455,30.093882 0 0 1 20.080232,-17.437085l34.71781,-10.183328z"/>
   <path stroke="null" id="svg_79" fill="#3f3d56" d="m258.124845,149.393974s-32.080074,29.558841 -33.120308,45.346946s3.445775,65.292585 3.445775,65.292585l15.566359,0s-0.770888,-60.100053 5.572682,-60.521069s35.09861,-17.92827 39.714649,-22.927837s11.981267,-22.734871 11.981267,-22.734871l-43.160424,-4.455754z"/>
   <path stroke="null" id="svg_80" fill="#68e1fd" d="m301.220255,153.867271s-25.67149,12.393662 -52.420364,-2.105081a59.962061,56.62667 0 0 1 -6.696507,-4.218932s11.256818,-18.989582 2.294088,-46.57491c-3.835863,-11.797223 -3.919453,-34.321586 15.074105,-37.531834l0.092878,0c18.891393,-3.166392 17.823295,1.236735 17.823295,1.236735l8.544779,7.841425c16.430125,12.586628 18.231959,31.883201 15.287725,81.352596z"/>
   <path stroke="null" id="svg_81" opacity="0.24" fill="#fff" d="m259.564455,63.418972a10.820291,10.218412 0 0 1 -3.557229,4.061051s-11.293969,4.72766 -9.037033,20.366655s6.390009,45.715335 6.390009,45.715335l-4.560312,18.200177a59.962061,56.62667 0 0 1 -6.696507,-4.218932s11.256818,-18.989582 2.294088,-46.57491c-3.835863,-11.797223 -3.919453,-34.321586 15.074105,-37.531834l0.092878,-0.017542z"/>
   <path stroke="null" id="svg_82" fill="#3f3d56" d="m276.551848,62.419058a11.814086,11.156928 0 0 1 -16.643744,1.394616l0,0l-0.408663,-0.333304s-13.931706,13.156754 0.148605,14.744336c7.430243,0.877117 16.57873,-7.613375 19.225754,-12.411205l-2.321951,-3.394443z"/>
   <path stroke="null" id="svg_83" fill="url(#linear-gradient-17)" d="m280.73136,50.095565c-0.055727,0.175423 -2.674887,7.744943 -4.643902,13.156754a18.575608,17.542339 0 0 1 -8.674809,9.90265a20.656076,19.507081 0 0 1 -7.894633,2.631351a3.640819,3.438298 0 0 1 -3.956604,-3.113765l0,0a3.59438,3.394443 0 0 1 0.492254,-2.061225c0.650146,-1.078854 1.356019,-2.32436 2.006166,-3.648806c1.356019,-2.754147 2.489131,-5.815285 2.303375,-8.236128l0,-0.263135c-0.16718,-1.263048 0.705873,-2.376987 2.173346,-3.350587c2.07118,-1.359531 5.331199,-2.429614 8.516916,-3.236562a87.714019,82.834924 0 0 1 9.677892,-1.780547z"/>
   <path stroke="null" id="svg_84" fill="url(#linear-gradient-18)" d="m260.084572,66.85727a7.56956,7.148503 0 0 1 -1.941151,0.131568c1.356019,-2.754147 2.489131,-5.815285 2.303375,-8.236128l2.15477,-3.613722l1.60679,-2.683978l6.910126,-0.552584l6.984428,-0.552584c-4.606751,10.288582 -12.343491,14.55137 -18.018339,15.507428z"/>
   <path stroke="null" id="svg_85" fill="url(#linear-gradient-19)" d="m273.059634,15.484531a18.7335,17.691449 0 0 0 -22.169988,13.683024c-0.092878,0.44733 -0.176468,0.877117 -0.241483,1.359531a63.407836,59.880774 0 0 0 -0.176468,21.471823c3.185717,11.007818 20.303139,7.016936 23.776778,3.67512s17.433208,-18.743989 15.148408,-24.734698c-1.458185,-4.069823 -6.566477,-13.376033 -16.337247,-15.454801z"/>
   <path stroke="null" id="svg_86" fill="#3f3d56" d="m259.267245,4.74862l2.637736,2.289275a11.916252,11.25341 0 0 0 -10.680974,1.903344a15.622086,14.753107 0 0 0 -7.253775,8.771169l5.860604,-0.991142s-2.136195,5.955624 7.578848,8.92905s19.996641,6.034565 19.996641,6.034565l-2.080468,-5.262702s5.451941,3.876857 5.907043,6.2977a77.144498,72.853333 0 0 1 -0.92878,10.963962s4.160936,-5.350413 4.792507,-3.789145s-2.990673,6.44681 -4.643902,7.315155s-2.433405,4.473296 -2.637736,4.736431s7.430243,-3.017282 8.182555,-4.631177s11.84195,-16.972213 8.79555,-21.568306l2.498419,0.44733a12.204174,11.525317 0 0 0 -4.328117,-2.99974s-10.374477,-24.050547 -33.696152,-18.445769z"/>
   <path stroke="null" id="svg_87" fill="url(#linear-gradient-20)" d="m255.589275,134.263707c-1.402458,-1.324447 -2.786341,-2.903257 -4.746068,-3.219019c-0.687297,1.543726 0.715161,3.131307 1.30958,4.701347a1.337444,1.263048 0 0 1 0,1.12271c-0.278634,0.421016 -0.92878,0.44733 -1.43961,0.412245a22.615802,21.357798 0 0 1 -7.198048,-1.631438c-2.117619,-0.877117 -4.151648,-2.008598 -6.445736,-2.227877a1.151688,1.087625 0 0 0 -0.724449,0.087712c-0.557268,0.333304 -0.232195,1.140252 0.16718,1.631438a20.117383,18.998353 0 0 0 2.888507,2.903257a15.937871,15.051327 0 0 0 -5.108292,-1.236735c-0.492254,0 -1.160975,0.096483 -1.151688,0.561355a0.92878,0.877117 0 0 0 0.278634,0.499957a15.789266,14.910988 0 0 0 4.643902,3.438298a15.714964,14.840819 0 0 0 -3.900878,-0.306991c-0.566556,0 -1.318868,0.280677 -1.235278,0.806948a0.92878,0.877117 0 0 0 0.260059,0.456101a11.851238,11.192012 0 0 0 6.074224,3.67512l-3.715122,0.078941a1.43961,1.359531 0 0 0 -0.67801,0.131568c-0.668722,0.403474 -0.08359,1.394616 0.566556,1.824403c2.860644,1.885801 6.501463,2.219106 10.002965,2.455927c6.696507,0.456101 13.74595,0.701694 19.783022,-2.087538c0.436527,-0.210508 0.92878,-0.491185 1.012371,-0.947286a1.69038,1.596353 0 0 0 -0.111454,-0.701694c-0.733736,-2.306818 -1.105249,-6.490665 -3.325034,-7.894052c-1.077385,-0.67538 -2.405541,-1.061311 -3.51079,-1.754234s-2.433405,-2.184021 -3.696546,-2.780461z"/>
   <path stroke="null" id="svg_88" fill="#68e1fd" d="m306.672195,129.369395c-2.099044,19.480767 -39.482454,21.866525 -39.482454,21.866525l-3.854439,-12.516459l-0.67801,-2.201564s20.024505,-2.385758 23.85108,-8.306297s-11.92554,-25.769696 -2.405541,-36.838912s11.684057,-7.666002 11.684057,-7.666002s12.965774,26.181941 10.885306,45.662708z"/>
   <path stroke="null" id="svg_89" fill="url(#linear-gradient-21)" d="m206.252461,100.249112a14.916213,14.086498 0 0 1 -0.157893,1.824403c-0.315785,2.727834 -1.216702,7.718629 -3.612956,9.534261c-3.371473,2.55241 -3.835863,-1.166566 -3.761561,-2.631351a16.476564,15.560055 0 0 1 0.417951,-2.385758c0.780176,-3.175163 4.913248,-5.350413 6.501463,-6.069649l0.612995,-0.271906z"/>
   <path stroke="null" id="svg_90" fill="url(#linear-gradient-22)" d="m206.094569,102.073515c-0.315785,2.727834 -1.216702,7.718629 -3.612956,9.534261c-1.040234,-0.710465 -2.377678,-1.657751 -3.761561,-2.631351c-1.857561,-1.315675 -3.835863,-2.70152 -5.238321,-3.666349a17.646827,16.665222 0 0 1 -3.380761,-2.789232a16.848076,15.910901 0 0 1 -2.15477,-3.508468l-2.879219,-5.911768c-0.92878,-1.938428 -1.857561,-4.49961 -0.204332,-5.99948c0.417951,-0.385931 4.225951,-1.087625 4.476721,-1.596353c0.696585,-1.456014 -3.715122,-4.534695 -3.436487,-6.139819a2.07118,1.955971 0 0 1 2.201209,-1.385845c0.92878,0.043856 3.566517,2.333131 4.393131,2.798003c1.634653,0.877117 0.260059,2.122623 1.857561,3.034825a21.194768,20.015809 0 0 1 5.572682,3.911942c1.801834,1.991055 2.712039,4.543466 3.575804,7.016936c0.631571,1.815632 1.476761,3.780374 2.126907,5.736345c0.176468,0.561355 0.334361,1.078854 0.46439,1.596353z"/>
   <polygon stroke="null" id="svg_91" fill="#68e1fd" points="192.43224349698633,88.09229917821415 186.2372472461466,60.34907626721281 183.94322916985496,50.09554708765211 219.94270546456394,59.20883559136075 230.39152216705227,125.5802628771072 196.93672273930773,115.9495315476953 192.43224349698633,88.09229917821415 "/>
   <polygon stroke="null" id="svg_92" fill="url(#linear-gradient-23)" points="199.92747028510533,87.75900120415702 185.6800021758518,57.86684901368619 196.93672273930773,115.9495315476953 230.39152216705227,125.5802628771072 226.8063360991928,102.8190663051247 199.92747028510533,87.75900120415702 "/>
   <path stroke="null" id="svg_93" fill="url(#linear-gradient-24)" d="m194.484814,100.056146c1.133112,-0.535041 3.455063,-1.508641 4.040195,-2.569953c0.139317,-0.254364 0.343649,-0.587668 0.16718,-0.815719c-0.808039,-1.05254 -4.133073,0.289449 -5.080429,0c0.650146,-1.008684 6.445736,-4.069823 3.715122,-4.762745c-0.585132,-0.14911 -4.216663,1.587582 -4.801795,1.429701c0.455102,-0.350847 4.188799,-2.859401 4.829658,-3.508468a1.216702,1.149023 0 0 0 -1.365307,-1.833174a56.767057,53.609388 0 0 1 -6.074224,2.245419c0.399376,-0.622753 5.79559,-3.508468 6.009209,-4.245246a1.448897,1.368302 0 0 0 0.055727,-0.877117a1.281717,1.210421 0 0 0 -0.789463,-0.657838c-1.504624,-0.552584 -3.195004,0 -4.699629,0.570126l-3.566517,1.333218c-1.1424,0.421016 -2.405541,0.964829 -2.786341,2.052454a3.900878,3.683891 0 0 0 -0.08359,1.692836a23.368114,22.068262 0 0 0 3.910165,9.90265c1.05881,1.456014 4.402419,4.973253 6.324994,5.315329c1.708956,0.306991 -1.402458,-4.438212 0.195044,-5.271473z"/>
   <path stroke="null" id="svg_94" opacity="0.24" fill="#fff" d="m231.728907,189.969404s12.278477,-26.567872 26.470241,-34.12862l-4.838946,-1.850717s-24.919177,25.024146 -27.863411,37.900223s2.962809,68.125673 2.962809,68.125673l4.086634,0s-6.752233,-64.625976 -0.817327,-70.046559z"/>
   <path stroke="null" id="svg_95" opacity="0.24" fill="#fff" d="m287.548608,132.465617c-7.903921,3.069909 -21.361949,5.745116 -24.259743,6.306471l-0.557268,0.105254l-0.120741,-2.306818s20.024505,-2.385758 23.85108,-8.306297s-11.92554,-25.769696 -2.405541,-36.838912c0,0 -1.207414,9.788625 1.922575,17.02484s10.448779,20.506994 1.569639,24.015462z"/>
  </g>
 </g>
</svg>