<svg width="1000" height="800" xmlns="http://www.w3.org/2000/svg" xmlns:xlink="http://www.w3.org/1999/xlink">
 <defs>
  <linearGradient y2="0.500066" x2="1.000086" y1="0.500066" x1="0.000305" id="linear-gradient">
   <stop stop-color="#e5c6d6" offset="0"/>
   <stop stop-color="#ead4d0" offset="0.42"/>
   <stop stop-color="#f0e9cb" offset="1"/>
  </linearGradient>
  <linearGradient y2="0.559488" x2="0.660865" y1="0.80259" x1="1.107676" id="linear-gradient-2">
   <stop stop-opacity="0" stop-color="#fff" offset="0"/>
   <stop stop-color="#fff" offset="0.95"/>
  </linearGradient>
  <linearGradient xlink:href="#linear-gradient" gradientTransform="matrix(-1, 0, 0, 1, -18.3, 0)" y2="95.29" x2="-489.78" y1="95.29" x1="-495.38" id="linear-gradient-3"/>
  <linearGradient xlink:href="#linear-gradient" gradientTransform="translate(470.54)" y2="92.4" x2="-33.48" y1="92.4" x1="-39.08" id="linear-gradient-4"/>
  <linearGradient xlink:href="#linear-gradient-2" gradientTransform="matrix(-1, 0, 0, 1, -18.3, 0)" y2="230.88" x2="-429.4" y1="244.21" x1="-564.64" id="linear-gradient-5"/>
  <linearGradient y2="-1.433427" x2="0.728937" y1="1.378199" x1="0.38271" id="linear-gradient-6">
   <stop stop-opacity="0" stop-color="#010101" offset="0.26"/>
   <stop stop-color="#010101" offset="0.99"/>
  </linearGradient>
  <linearGradient y2="0.828334" x2="0.406076" y1="0.237243" x1="0.628798" id="linear-gradient-7">
   <stop stop-opacity="0" stop-color="#010101" offset="0"/>
   <stop stop-color="#010101" offset="0.95"/>
  </linearGradient>
  <linearGradient xlink:href="#linear-gradient" gradientTransform="matrix(-1, 0, 0, 1, -18.3, 0)" y2="119.73" x2="-462.49" y1="119.73" x1="-486.63" id="linear-gradient-8"/>
  <linearGradient y2="-1.972919" x2="0.011117" y1="1.177572" x1="0.663546" id="linear-gradient-9">
   <stop stop-opacity="0" stop-color="#010101" offset="0.12"/>
   <stop stop-color="#010101" offset="0.95"/>
  </linearGradient>
  <linearGradient xlink:href="#linear-gradient" gradientTransform="matrix(-1, 0, 0, 1, -18.3, 0)" y2="89.66" x2="-453.49" y1="89.66" x1="-491.71" id="linear-gradient-10"/>
  <linearGradient xlink:href="#linear-gradient-9" gradientTransform="matrix(-1, 0, 0, 1, -17.36, -1.58)" y2="258.65" x2="-455.94" y1="520.78" x1="-481.92" id="linear-gradient-11"/>
  <linearGradient xlink:href="#linear-gradient-2" gradientTransform="matrix(-1, 0, 0, 1, -18.3, 0)" y2="165.76" x2="-474.13" y1="172.3" x1="-493.75" id="linear-gradient-12"/>
  <linearGradient y2="0.498354" x2="0.892857" y1="0.481553" x1="-0.281384" id="linear-gradient-13">
   <stop stop-opacity="0" stop-color="#fff" offset="0"/>
   <stop stop-opacity="0.18" stop-color="#fff" offset="0.11"/>
   <stop stop-opacity="0.42" stop-color="#fff" offset="0.29"/>
   <stop stop-opacity="0.63" stop-color="#fff" offset="0.45"/>
   <stop stop-opacity="0.79" stop-color="#fff" offset="0.6"/>
   <stop stop-opacity="0.9" stop-color="#fff" offset="0.74"/>
   <stop stop-opacity="0.98" stop-color="#fff" offset="0.86"/>
   <stop stop-color="#fff" offset="0.95"/>
  </linearGradient>
  <linearGradient xlink:href="#linear-gradient-9" y2="90.25" x2="-461.33" y1="92.6" x1="-450" id="linear-gradient-14"/>
  <linearGradient xlink:href="#linear-gradient-9" gradientTransform="translate(482.42)" y2="93.03" x2="-17.24" y1="95.38" x1="-5.91" id="linear-gradient-15"/>
  <linearGradient xlink:href="#linear-gradient-9" gradientTransform="matrix(1, 0, 0, 1, 0, 0)" y2="437.35" x2="298.84" y1="474.88" x1="297.55" id="linear-gradient-16"/>
  <linearGradient xlink:href="#linear-gradient-9" gradientTransform="matrix(1, 0, 0, 1, 0, 0)" y2="545.55" x2="178.53" y1="510.29" x1="180.15" id="linear-gradient-17"/>
  <linearGradient xlink:href="#linear-gradient-9" gradientTransform="matrix(1, 0, 0, 1, 0, 0)" y2="524.73" x2="172.42" y1="508.34" x1="160.99" id="linear-gradient-18"/>
  <linearGradient xlink:href="#linear-gradient-9" gradientTransform="matrix(1, 0, 0, 1, 0, 0)" y2="529.54" x2="151.44" y1="520.81" x1="137.85" id="linear-gradient-19"/>
  <linearGradient xlink:href="#linear-gradient-9" gradientTransform="matrix(1, 0, 0, 1, 0, 0)" y2="532.21" x2="209.6" y1="525.74" x1="191.48" id="linear-gradient-20"/>
  <linearGradient xlink:href="#linear-gradient-9" gradientTransform="matrix(1, 0, 0, 1, 0, 0)" y2="600.38" x2="-2.81" y1="402.73" x1="328.04" id="linear-gradient-21"/>
  <linearGradient xlink:href="#linear-gradient-9" gradientTransform="matrix(1, 0, 0, 1, 0, 0)" y2="384.25" x2="354.75" y1="410.99" x1="312.47" id="linear-gradient-22"/>
  <linearGradient xlink:href="#linear-gradient" y2="349.03" x2="270.58" y1="349.03" x1="200.55" id="linear-gradient-23"/>
  <linearGradient xlink:href="#linear-gradient-9" gradientTransform="matrix(1, 0, 0, 1, 0, 0)" y2="369.36" x2="417.89" y1="369.36" x1="180.39" id="linear-gradient-24"/>
  <linearGradient xlink:href="#linear-gradient-9" gradientTransform="matrix(1, 0, 0, 1, 0, 0)" y2="364.95" x2="381.35" y1="364.95" x1="180.39" id="linear-gradient-25"/>
  <linearGradient xlink:href="#linear-gradient" y2="291.66" x2="434.04" y1="291.66" x1="393.98" id="linear-gradient-26"/>
  <linearGradient xlink:href="#linear-gradient-9" gradientTransform="matrix(1, 0, 0, 1, 0, 0)" y2="519.5" x2="516.38" y1="291.74" x1="273.09" id="linear-gradient-27"/>
  <linearGradient xlink:href="#linear-gradient-9" gradientTransform="matrix(1, 0, 0, 1, 0, 0)" y2="417.32" x2="399.35" y1="326.97" x1="302.84" id="linear-gradient-28"/>
  <linearGradient xlink:href="#linear-gradient" y2="257.97" x2="330.98" y1="257.97" x1="301.45" id="linear-gradient-29"/>
  <linearGradient xlink:href="#linear-gradient-9" gradientTransform="matrix(1, 0, 0, 1, 0, 0)" y2="183.64" x2="362.59" y1="273.8" x1="303.93" id="linear-gradient-30"/>
  <linearGradient xlink:href="#linear-gradient-9" gradientTransform="matrix(1, 0, 0, 1, 0, 0)" y2="471.04" x2="286.32" y1="406.57" x1="224.82" id="linear-gradient-31"/>
  <linearGradient xlink:href="#linear-gradient-9" gradientTransform="matrix(1, 0, 0, 1, 0, 0)" y2="463.91" x2="215.18" y1="407.45" x1="164.93" id="linear-gradient-32"/>
  <linearGradient xlink:href="#linear-gradient-9" gradientTransform="matrix(1, 0, 0, 1, 0, 0)" y2="536.64" x2="402.71" y1="392.35" x1="329.59" id="linear-gradient-33"/>
  <linearGradient xlink:href="#linear-gradient-9" gradientTransform="matrix(1, 0, 0, 1, 0, 0)" y2="554.17" x2="266.61" y1="512.12" x1="253.99" id="linear-gradient-34"/>
  <linearGradient xlink:href="#linear-gradient-9" gradientTransform="matrix(1, 0, 0, 1, 0, 0)" y2="553.74" x2="269.2" y1="512.69" x1="256.89" id="linear-gradient-35"/>
  <linearGradient xlink:href="#linear-gradient-9" gradientTransform="matrix(1, 0, 0, 1, 0, 0)" y2="522.02" x2="173.42" y1="448.26" x1="223.89" id="linear-gradient-36"/>
  <linearGradient xlink:href="#linear-gradient-9" gradientTransform="matrix(1, 0, 0, 1, 0, 0)" y2="506.5" x2="410.77" y1="464.98" x1="360.06" id="linear-gradient-37"/>
  <linearGradient xlink:href="#linear-gradient-9" gradientTransform="matrix(1, 0, 0, 1, 0, 0)" y2="515.5" x2="340.09" y1="463.6" x1="278.11" id="linear-gradient-38"/>
  <linearGradient xlink:href="#linear-gradient" y2="222.15" x2="341.81" y1="222.15" x1="285.86" id="linear-gradient-39"/>
  <linearGradient xlink:href="#linear-gradient-9" gradientTransform="matrix(1, 0, 0, 1, 0, 0)" y2="524.99" x2="448.45" y1="361.93" x1="203.43" id="linear-gradient-40"/>
  <linearGradient xlink:href="#linear-gradient" y2="356.27" x2="383.02" y1="356.27" x1="295.22" id="linear-gradient-41"/>
  <linearGradient xlink:href="#linear-gradient-2" y2="244.99" x2="504.27" y1="192.8" x1="401.46" id="linear-gradient-42"/>
 </defs>
 <title>Health 3</title>
 <g>
  <title>background</title>
  <rect fill="none" id="canvas_background" height="802" width="1002" y="-1" x="-1"/>
 </g>
 <g>
  <title>Layer 1</title>
  <g stroke="null" id="svg_80">
   <path stroke="null" id="svg_1" opacity="0.24" fill="#46c6ef" d="m167.369899,765.081764a1791.724009,1680.475069 0 0 0 504.681436,27.865561c59.420571,-4.632872 119.351127,-12.299659 174.560677,-33.345742s105.829232,-57.070417 132.916736,-106.884036s26.88351,-114.318497 -9.150593,-158.870595c-21.361098,-26.416934 -54.437286,-46.178386 -63.995868,-78.089168c-7.285504,-24.489988 1.107397,-50.319271 6.571525,-75.164582c8.305475,-37.773619 9.25259,-78.868146 -9.762575,-113.061198c-35.451263,-63.753232 -124.625832,-81.628737 -177.096032,-134.052616c-14.571008,-14.499931 -26.067533,-31.555458 -41.585657,-45.098749c-23.546749,-20.704426 -54.9327,-31.897116 -86.333223,-38.866922c-92.948461,-20.636094 -199.229394,-4.67387 -267.494566,57.986059c-27.684915,25.405629 -47.924046,57.029419 -65.307258,89.486852c-35.567831,66.445491 -61.591651,139.778791 -116.859485,193.077313c-35.232698,33.933392 -80.94195,58.191053 -111.337073,96.074003c-34.023304,42.392824 -45.024415,100.201222 -28.821454,151.026146c9.281732,29.054528 26.854368,55.895117 30.992534,85.974616c1.777663,12.955641 1.019971,26.334936 5.172708,38.812257c13.988168,42.0785 86.260368,36.160997 122.848169,43.130804z"/>
   <polygon stroke="null" id="svg_2" opacity="0.24" fill="#46c6ef" points="593.1347571441656,221.02684543122336 593.1347571441656,346.60638660973086 496.0190028936122,346.60638660973086 496.0190028936122,440.398065635635 362.18430775976594,440.398065635635 362.18430775976594,346.60638660973086 265.1268102936083,346.60638660973086 265.1268102936083,221.02684543122336 362.18430775976594,221.02684543122336 362.18430775976594,132.76994610614815 496.0190028936122,132.76994610614815 496.0190028936122,221.02684543122336 593.1347571441656,221.02684543122336 "/>
   <path stroke="null" id="svg_3" fill="url(#linear-gradient)" d="m491.268838,363.470567a5.740977,5.384517 0 0 0 -2.273077,3.061248c-0.378846,2.377934 2.302219,4.099886 4.691865,5.015528a38.511174,36.119998 0 0 0 15.212132,2.473598a2.622781,2.459932 0 0 0 1.661095,-0.437321a2.695636,2.528263 0 0 0 0.641124,-1.790284c0.276849,-4.550874 1.690237,-12.969307 -2.914202,-14.663927s-13.769603,3.785562 -17.018937,6.341157z"/>
   <path stroke="null" id="svg_4" fill="#46c6ef" d="m620.23683,190.783355s-26.796084,40.520543 -61.271089,143.619018c-5.187279,15.511237 -50.911102,20.335436 -50.911102,20.335436l11.307102,29.191191s31.109102,2.65126 55.632109,-9.730397s41.48366,-60.131666 41.48366,-60.131666l3.75932,-123.283581z"/>
   <path stroke="null" id="svg_5" fill="url(#linear-gradient-2)" d="m620.23683,190.783355s-26.796084,40.520543 -61.271089,143.619018c-5.187279,15.511237 -50.911102,20.335436 -50.911102,20.335436l11.307102,29.191191s31.109102,2.65126 55.632109,-9.730397s41.48366,-60.131666 41.48366,-60.131666l3.75932,-123.283581z"/>
   <path stroke="null" id="svg_6" fill="url(#linear-gradient-3)" d="m697.390318,125.444833a10.98654,10.304381 0 0 1 -2.914202,8.090442a4.371302,4.099886 0 0 1 -1.835947,1.2163c-3.686465,1.147968 -3.90503,-5.931169 -2.826776,-7.940113c1.325962,-2.241271 7.08151,-5.917503 7.576924,-1.366629z"/>
   <path stroke="null" id="svg_7" fill="url(#linear-gradient-4)" d="m631.106802,121.495276a10.942827,10.263382 0 0 0 2.914202,8.076776a4.633581,4.345879 0 0 0 1.821376,1.229966c3.701036,1.134302 3.919601,-5.944835 2.841347,-7.953779c-1.282249,-2.295936 -7.023226,-5.917503 -7.576924,-1.352962z"/>
   <path stroke="null" id="svg_8" opacity="0.24" fill="#46c6ef" d="m571.686231,755.501696c-3.438758,-2.514597 -5.332989,-6.395823 -7.970341,-9.648399c-10.826259,-13.379296 -31.385951,-14.144608 -48.740022,-18.285493a98.747722,92.616432 0 0 1 -41.163098,-20.499432c32.23107,-3.635233 64.840986,-1.91328 97.232337,-0.191328l219.133391,11.630011c12.28336,0.642316 24.625004,1.298297 36.646085,3.689898c3.278477,0.642316 6.833803,1.612622 8.655179,4.263882c2.054512,3.006583 0.961687,7.188467 -1.544527,9.880726s-6.105252,4.222883 -9.616865,5.630511c-34.708141,13.843949 -73.073606,22.672371 -110.156821,16.262882c-2.579068,-0.450987 -5.507841,-1.229966 -6.556954,-3.484903s0.451701,-5.083859 0,-7.598456c-0.888831,-4.728536 -7.504069,-5.808172 -12.618493,-5.78084l-48.812877,0.232327c-2.914202,0 -5.9304,0.081998 -8.290904,1.585289c-5.012427,3.211578 -4.371302,10.93303 -9.179735,14.404267c-2.243935,1.585289 -5.20185,1.872281 -7.999483,2.049943c-12.895342,0.806311 -38.01576,3.935891 -49.016871,-4.140885z"/>
   <path stroke="null" id="svg_9" fill="#46c6ef" d="m681.114502,167.332005c16.552665,7.475459 29.069161,20.813756 41.119385,33.810396c2.433358,2.623927 3.555326,5.835505 4.852146,9.088081c13.667606,34.329715 11.656806,56.5101 16.028109,84.498657c3.540755,22.932031 5.449557,68.809759 5.449557,68.809759s-1.311391,92.247442 -6.49867,106.87037l-162.423027,-3.648899s12.356215,-149.112865 13.434469,-167.357359c5.187279,-88.557544 24.246157,-108.059337 38.540316,-120.263332s49.497714,-11.807673 49.497714,-11.807673z"/>
   <path stroke="null" id="svg_10" fill="url(#linear-gradient-5)" d="m681.114502,167.332005c16.552665,7.475459 29.069161,20.813756 41.119385,33.810396c2.433358,2.623927 3.555326,5.835505 4.852146,9.088081c13.667606,34.329715 11.656806,56.5101 16.028109,84.498657c3.540755,22.932031 5.449557,68.809759 5.449557,68.809759s-1.311391,92.247442 -6.49867,106.87037l-162.423027,-3.648899s12.399928,-143.16803 12.997339,-160.045895c3.016199,-85.728623 21.011394,-114.796817 38.977447,-127.547463c15.386985,-10.960363 49.497714,-11.835005 49.497714,-11.835005z"/>
   <path stroke="null" id="svg_11" fill="url(#linear-gradient-6)" d="m710.504225,410.960916c-24.625004,10.154052 -49.541427,22.371713 -75.914952,17.602179c-6.119823,-1.093303 -12.72049,-2.733258 -18.344899,-0.218661c-13.347043,5.931169 -7.882915,27.236911 -19.394012,35.92867a8.742605,8.199773 0 0 1 -8.014054,1.899614c-4.837575,-1.530624 -5.609838,-7.543791 -5.536983,-12.299659l0.641124,-37.62329c0,-3.662565 0.218565,-7.598456 2.593639,-10.509375a17.601778,16.508876 0 0 1 5.988684,-4.209217a298.705666,280.158898 0 0 1 74.414138,-26.649261c12.633064,-2.733258 25.470122,-4.919864 37.884621,-8.459432a120.808228,113.307191 0 0 0 18.825742,-6.696481c3.103625,-1.43496 18.752887,-39.90556 19.394012,-37.609624c8.698892,30.77648 -5.697264,77.78851 -32.537061,88.844536z"/>
   <path stroke="null" id="svg_12" fill="#fff" d="m622.364198,265.223624l-24.202444,-0.765312s-3.409616,30.77648 2.768492,32.607762s20.778258,0.300658 20.778258,0.300658l0.655695,-32.143109z"/>
   <path stroke="null" id="svg_13" fill="#606161" d="m685.544089,177.335728s-18.840313,16.754869 -29.244013,5.466515s-9.092309,-7.010806 -9.092309,-7.010806l7.154365,107.307691l31.181957,-105.763401z"/>
   <path stroke="null" id="svg_14" fill="#606161" d="m659.505697,66.488468a21.127962,19.816117 0 0 1 13.973597,-7.133802c5.289276,-0.519319 11.146821,1.202633 14.031881,5.398184c2.098225,3.047582 2.375074,6.833144 2.447929,10.495709c0,3.389239 0,6.901475 -1.646524,9.921725a14.906141,13.980612 0 0 1 -7.912057,6.354824c-7.751776,2.86992 -16.931511,0.532985 -22.934767,-4.646538s-2.637352,-15.01925 2.039941,-20.390101z"/>
   <path stroke="null" id="svg_15" fill="url(#linear-gradient-7)" d="m659.505697,66.488468a21.127962,19.816117 0 0 1 13.973597,-7.133802c5.289276,-0.519319 11.146821,1.202633 14.031881,5.398184c2.098225,3.047582 2.375074,6.833144 2.447929,10.495709c0,3.389239 0,6.901475 -1.646524,9.921725a14.906141,13.980612 0 0 1 -7.912057,6.354824c-7.751776,2.86992 -16.931511,0.532985 -22.934767,-4.646538s-2.637352,-15.01925 2.039941,-20.390101z"/>
   <path stroke="null" id="svg_16" fill="url(#linear-gradient-8)" d="m678.171158,145.247284s0.218565,23.150691 5.828403,28.029556s-22.526778,27.619567 -34.431292,2.227605c0,0 6.921229,-10.93303 4.546155,-29.45085s24.056734,-0.806311 24.056734,-0.806311z"/>
   <path stroke="null" id="svg_17" fill="url(#linear-gradient-9)" d="m679.045419,150.727466l0,5.070193s-14.294159,19.296798 -20.137133,12.805312s-4.123595,-7.926447 -4.123595,-7.926447l-0.641124,-14.622928l24.901853,4.67387z"/>
   <path stroke="null" id="svg_18" fill="url(#linear-gradient-10)" d="m691.824193,112.133869s4.109024,35.34102 -16.028109,42.365492s-32.158215,-3.047582 -37.680627,-20.103109s2.928773,-51.508238 24.304441,-48.091666s29.404294,25.829284 29.404294,25.829284z"/>
   <path stroke="null" id="svg_19" fill="#606161" d="m695.044386,124.009873a9.646007,9.047082 0 0 0 1.748521,-4.099886a41.163098,38.607263 0 0 0 -13.623893,-36.256661a22.993051,21.565402 0 0 0 -7.562353,-4.181884a24.668717,23.137025 0 0 0 -8.582324,-0.819977a43.130184,40.452212 0 0 0 -25.00385,8.473098a32.741055,30.708148 0 0 0 -12.356215,21.770396a16.028109,15.032916 0 0 0 1.267678,7.366129a8.596895,8.06311 0 0 0 5.988684,4.578206c4.662723,0.751646 5.944971,-3.266243 9.704291,-5.958501c5.653551,-4.099886 7.460356,-10.058388 20.399411,-9.047082c20.909397,1.667287 22.381068,24.640317 28.020049,18.176163z"/>
   <polygon stroke="null" id="svg_20" fill="#606161" points="729.0677529294262,469.1929186194818 731.6613793041543,708.0523556236501 729.7233893507146,741.5621452708936 703.7287147587849,742.7784469459064 664.7512945777489,483.21459859864876 632.4327547039356,743.2293284769901 604.6604448737562,743.0790584403355 601.0905166645753,466.7603866905763 729.0677529294262,469.1929186194818 "/>
   <polygon stroke="null" id="svg_21" fill="url(#linear-gradient-11)" points="729.0677529294262,469.1929186194818 731.6613793041543,708.0523556236501 729.7233893507146,741.5621452708936 703.7287147587849,742.7784469459064 664.1101398202809,480.1669879835888 632.4327547039356,743.2293284769901 604.6604448737562,743.0790584403355 601.0905166645753,466.7603866905763 729.0677529294262,469.1929186194818 "/>
   <polygon stroke="null" id="svg_22" fill="#606161" points="751.15735223519,761.05025493897 705.6812303932602,760.4488891078715 703.7287147587849,742.7784469459064 729.7233893507146,741.5621452708936 751.15735223519,761.05025493897 "/>
   <polygon stroke="null" id="svg_23" fill="#606161" points="585.0041172275305,761.05025493897 630.4802830866756,760.4488891078715 632.4327547039356,742.7784469459064 606.4526057930416,741.5621452708936 585.0041172275305,761.05025493897 "/>
   <path stroke="null" id="svg_24" fill="#46c6ef" d="m680.560804,168.192981s7.358359,5.89017 0,20.499432s-26.88351,97.139973 -26.88351,97.139973l38.977447,-60.322994l-4.371302,-22.740703l8.23262,-6.095164s0,-21.538069 -4.371302,-25.965947s-8.859173,-4.181884 -11.583951,-2.514597z"/>
   <path stroke="null" id="svg_25" fill="#46c6ef" d="m653.385874,165.446058s-11.656806,2.733258 -13.653035,7.926447s-10.068567,20.417434 -10.068567,20.417434l5.20185,6.696481l-8.116052,8.814756l26.927223,76.531211s-6.9358,-103.590461 -4.109024,-110.286942s3.817604,-10.099387 3.817604,-10.099387z"/>
   <path stroke="null" id="svg_26" fill="url(#linear-gradient-12)" d="m680.560804,168.192981s7.358359,5.89017 0,20.499432s-26.88351,97.139973 -26.88351,97.139973l38.977447,-60.322994l-4.371302,-22.740703l8.23262,-6.095164s0,-21.538069 -4.371302,-25.965947s-8.859173,-4.181884 -11.583951,-2.514597z"/>
   <path stroke="null" id="svg_27" fill="url(#linear-gradient-13)" d="m653.385874,165.446058s-11.656806,2.733258 -13.653035,7.926447s-10.068567,20.417434 -10.068567,20.417434l5.20185,6.696481l-8.116052,8.814756l26.927223,76.531211s-6.9358,-103.590461 -4.109024,-110.286942s3.817604,-10.099387 3.817604,-10.099387z"/>
   <path stroke="null" id="svg_28" fill="url(#linear-gradient-14)" d="m634.851551,124.009873a2.506213,2.350601 0 0 1 -0.597411,-0.765312a6.440386,6.040499 0 0 1 -0.14571,-0.997639a1.457101,1.366629 0 0 0 -0.495414,-0.874642a0.976258,0.915641 0 0 0 -1.0054,-0.177662a1.092826,1.024972 0 0 0 -0.611982,0.655982a3.074483,2.883587 0 0 0 -0.14571,0.901975a7.51864,7.051804 0 0 0 0.539127,3.416572a8.261762,7.748785 0 0 0 1.748521,1.954279a1.457101,1.366629 0 0 0 0.961687,0.491986a1.355104,1.270965 0 0 0 0.684837,-0.232327a0.58284,0.546652 0 0 0 0.233136,-0.177662a0.597411,0.560318 0 0 0 0,-0.259659a6.892087,6.464154 0 0 0 -0.072855,-2.405267a3.395045,3.184245 0 0 0 -1.092826,-1.530624z"/>
   <path stroke="null" id="svg_29" fill="url(#linear-gradient-15)" d="m693.22301,127.822768a2.4625,2.309603 0 0 0 0.58284,-0.765312a5.20185,4.878865 0 0 0 0.14571,-1.011305a1.544527,1.448626 0 0 1 0.495414,-0.874642a1.049113,0.983973 0 0 1 1.019971,-0.177662a1.194823,1.120636 0 0 1 0.611982,0.669648a3.555326,3.334574 0 0 1 0.131139,0.901975a7.285504,6.833144 0 0 1 -0.539127,3.416572a7.926628,7.434461 0 0 1 -1.73395,1.954279a1.457101,1.366629 0 0 1 -0.961687,0.491986a1.355104,1.270965 0 0 1 -0.684837,-0.232327a0.58284,0.546652 0 0 1 -0.233136,-0.177662a0.976258,0.915641 0 0 1 0,-0.259659a7.285504,6.833144 0 0 1 0,-2.418933a3.482471,3.266243 0 0 1 1.165681,-1.516958z"/>
   <rect stroke="null" id="svg_30" fill="#46c6ef" height="61.306967" width="13.390756" y="597.505744" x="428.657216"/>
   <rect stroke="null" id="svg_31" fill="url(#linear-gradient-16)" height="61.306967" width="13.390756" y="597.505744" x="428.657216"/>
   <path stroke="null" id="svg_32" fill="#606161" d="m263.013996,776.684442c-20.151704,0 -35.932106,-18.791146 -35.932106,-42.789147s15.780402,-42.789147 35.932106,-42.789147s35.932106,18.791146 35.932106,42.789147s-15.794973,42.789147 -35.932106,42.789147zm0,-68.550099c-9.646007,0 -17.77663,11.794006 -17.77663,25.760952s8.130623,25.760952 17.77663,25.760952s17.77663,-11.794006 17.77663,-25.760952s-8.145194,-25.774619 -17.77663,-25.774619l0,0.013666z"/>
   <path stroke="null" id="svg_33" fill="url(#linear-gradient-17)" d="m263.013996,776.684442c-20.151704,0 -35.932106,-18.791146 -35.932106,-42.789147s15.780402,-42.789147 35.932106,-42.789147s35.932106,18.791146 35.932106,42.789147s-15.794973,42.789147 -35.932106,42.789147zm0,-68.550099c-9.646007,0 -17.77663,11.794006 -17.77663,25.760952s8.130623,25.760952 17.77663,25.760952s17.77663,-11.794006 17.77663,-25.760952s-8.145194,-25.774619 -17.77663,-25.774619l0,0.013666z"/>
   <path stroke="null" id="svg_34" fill="url(#linear-gradient-18)" d="m266.744174,691.311143c-18.024337,2.200272 -31.691943,20.103109 -31.691943,42.597819s13.667606,40.38388 31.691943,42.584153c18.344899,-2.200272 32.201928,-20.103109 32.201928,-42.584153s-13.915313,-40.397546 -32.201928,-42.597819zm3.671894,68.331439a9.937428,9.320408 0 0 1 -3.671894,-0.628649a10.447413,9.798728 0 0 1 -3.75932,0.628649c-9.646007,0 -17.747488,-11.807673 -17.747488,-25.747286s8.10148,-25.774619 17.747488,-25.774619a12.225076,11.466015 0 0 1 3.75932,0.560318a11.656806,10.93303 0 0 1 3.715607,-0.560318c9.442013,0 17.48521,11.739341 17.48521,25.760952s-8.086909,25.774619 -17.48521,25.774619l-0.043713,-0.013666z"/>
   <path stroke="null" id="svg_35" fill="#606161" d="m162.138907,706.275728c-3.103625,2.801589 -5.114424,7.912781 -1.923373,10.605039c1.908802,1.612622 4.76472,1.544291 7.285504,1.366629c18.111763,-1.161634 37.884621,-0.915641 55.9381,-2.555596c2.535355,-0.232327 3.671894,1.079637 5.420415,-0.669648c0.990829,-0.983973 1.457101,-5.589512 1.937944,-6.833144l3.307619,-8.691759a3.059912,2.86992 0 0 0 0.262278,-1.831283a3.118196,2.924586 0 0 0 -1.58824,-1.489625c-5.187279,-2.86992 -14.206733,-8.090442 -20.399411,-7.899114c-5.828403,0.163995 -9.951999,4.56454 -15.45984,6.573484c-11.452812,4.154551 -25.368125,2.979251 -34.780996,11.425017z"/>
   <path stroke="null" id="svg_36" fill="url(#linear-gradient-19)" d="m162.138907,706.275728c-3.103625,2.801589 -5.114424,7.912781 -1.923373,10.605039c1.908802,1.612622 4.76472,1.544291 7.285504,1.366629c18.111763,-1.161634 37.884621,-0.915641 55.9381,-2.555596c2.535355,-0.232327 3.671894,1.079637 5.420415,-0.669648c0.990829,-0.983973 1.457101,-5.589512 1.937944,-6.833144l3.307619,-8.691759a3.059912,2.86992 0 0 0 0.262278,-1.831283a3.118196,2.924586 0 0 0 -1.58824,-1.489625c-5.187279,-2.86992 -14.206733,-8.090442 -20.399411,-7.899114c-5.828403,0.163995 -9.951999,4.56454 -15.45984,6.573484c-11.452812,4.154551 -25.368125,2.979251 -34.780996,11.425017z"/>
   <path stroke="null" id="svg_37" fill="#606161" d="m259.60438,707.177703c-7.052368,0.245993 -14.673005,1.011305 -19.860284,5.466515c-0.917974,0.778978 -1.792234,1.954279 -1.340533,3.033916a3.278477,3.074915 0 0 0 1.602811,1.366629c16.304958,8.842088 36.544088,8.199773 54.05844,14.718592c1.675666,0.614983 3.642752,1.284631 5.158137,0.396322a5.697264,5.343518 0 0 0 1.748521,-2.077276q3.919601,-6.833144 7.285504,-13.994279a3.045341,2.856254 0 0 0 0.378846,-1.749285c-0.203994,-0.915641 -1.238536,-1.366629 -2.141938,-1.749285q-6.003255,-2.364268 -12.021082,-4.632872c-3.555326,-1.366629 -8.844602,-4.537208 -12.662206,-4.687537c-3.016199,-0.136663 -6.440386,2.268604 -9.54401,2.856254a74.603561,69.971393 0 0 1 -12.662206,1.052304z"/>
   <path stroke="null" id="svg_38" fill="url(#linear-gradient-20)" d="m259.60438,707.177703c-7.052368,0.245993 -14.673005,1.011305 -19.860284,5.466515c-0.917974,0.778978 -1.792234,1.954279 -1.340533,3.033916a3.278477,3.074915 0 0 0 1.602811,1.366629c16.304958,8.842088 36.544088,8.199773 54.05844,14.718592c1.675666,0.614983 3.642752,1.284631 5.158137,0.396322a5.697264,5.343518 0 0 0 1.748521,-2.077276q3.919601,-6.833144 7.285504,-13.994279a3.045341,2.856254 0 0 0 0.378846,-1.749285c-0.203994,-0.915641 -1.238536,-1.366629 -2.141938,-1.749285q-6.003255,-2.364268 -12.021082,-4.632872c-3.555326,-1.366629 -8.844602,-4.537208 -12.662206,-4.687537c-3.016199,-0.136663 -6.440386,2.268604 -9.54401,2.856254a74.603561,69.971393 0 0 1 -12.662206,1.052304z"/>
   <path stroke="null" id="svg_39" fill="#606161" d="m425.160174,768.853659c-49.337433,0 -89.480561,-50.209941 -89.480561,-111.940563s40.143127,-111.954229 89.480561,-111.954229s89.495132,50.223607 89.495132,111.954229s-40.201411,111.940563 -89.495132,111.940563zm0,-211.335473c-41.949932,0 -76.089804,44.593097 -76.089804,99.394911s34.139872,99.381244 76.089804,99.381244s76.089804,-44.593097 76.089804,-99.381244s-34.081588,-99.394911 -76.089804,-99.394911z"/>
   <path stroke="null" id="svg_40" fill="#46c6ef" d="m544.715295,666.862154l-280.739613,0l0,-127.260471a42.955332,40.288216 0 0 1 42.795051,-40.342881l134.577831,0l0,12.559318l-134.577831,0a29.593717,27.75623 0 0 0 -29.477149,27.783563l0,114.701153l263.050409,0l3.147338,-2.200272l0,-59.311689l13.332472,0l0,65.598181l-12.108508,8.473098z"/>
   <path stroke="null" id="svg_41" fill="url(#linear-gradient-21)" d="m544.861006,666.862154l-280.885323,0l0,-127.260471a42.955332,40.288216 0 0 1 42.824193,-40.342881l134.650686,0l0,12.559318l-134.650686,0a29.593717,27.75623 0 0 0 -29.49172,27.783563l0,114.701153l263.181548,0l3.161909,-2.200272l0,-59.311689l13.332472,0l0,65.598181l-12.123079,8.473098z"/>
   <path stroke="null" id="svg_42" fill="url(#linear-gradient-22)" d="m544.861006,666.862154l-280.885323,0l0,-127.260471a42.955332,40.288216 0 0 1 42.824193,-40.342881l134.650686,0l0,12.559318l-134.650686,0a29.593717,27.75623 0 0 0 -29.49172,27.783563l0,114.701153l263.181548,0l3.161909,-2.200272l0,-59.311689l13.332472,0l0,65.598181l-12.123079,8.473098z"/>
   <path stroke="null" id="svg_43" fill="url(#linear-gradient-23)" d="m373.243672,469.889949c-0.859689,2.951918 -1.850518,6.013167 -4.094453,8.199773s-5.49327,3.293575 -8.626037,4.181884c-12.123079,3.430238 -24.770714,5.193189 -36.602372,9.470737s-23.12419,11.698342 -27.859767,22.71337c-2.185651,5.097525 -2.389645,11.848671 2.287648,15.155913s11.073966,1.448626 16.421526,-0.464654l69.052007,-24.653983c2.418787,-0.874642 4.983285,-1.831283 6.556954,-3.771895s1.865089,-4.687537 2.054512,-7.202134q2.083654,-27.332575 4.138166,-54.665151c0.553698,-7.229466 -4.298447,-27.332575 -14.367014,-14.253938c-3.161909,4.099886 -2.331361,15.880226 -3.234764,20.90942a265.308915,248.835767 0 0 1 -5.726406,24.380657z"/>
   <path stroke="null" id="svg_44" fill="#46c6ef" d="m610.780246,407.079691c-0.072855,0.191328 -0.670266,0.382656 -1.15111,0.437321c-7.635208,1.257298 -35.422121,2.131941 -35.422121,2.200272a15.212132,14.267604 0 0 0 -10.782546,3.648899c-3.948743,3.197911 -6.090681,8.199773 -6.49867,14.759591c-0.87426,15.196912 -0.131139,153.14442 0,176.568437l-291.726153,0l0,-36.434323l213.042709,-16.71387l40.449118,-95.349689l29.870567,0l0,-39.31791c0.859689,-2.323269 6.148965,-13.816617 22.628776,-14.199273c16.742088,-0.314325 33.017904,-0.122997 38.511174,0c0.87426,1.69462 1.413388,3.648899 1.078255,4.400545z"/>
   <path stroke="null" id="svg_45" fill="url(#linear-gradient-24)" d="m611.188234,410.045275c0,0.163995 -43.028187,-0.628649 -47.763765,3.334574c-3.934172,3.170579 -6.07611,8.117775 -6.49867,14.745924c-0.320562,4.947196 -0.43713,23.232689 -0.43713,46.397047c0,11.930669 0,24.599318 0,36.967308c0,29.027195 0.189423,58.847035 0.247707,77.556183c0,6.969807 0.131139,12.436322 0.131139,15.661566l-291.667869,0l0,-36.447989l213.013567,-16.686537l40.463689,-95.349689l29.899709,0l0,-39.331576a22.847341,21.428739 0 0 1 9.442013,-10.769035a26.227815,24.599318 0 0 1 13.201333,-3.443905c16.698375,-0.300658 32.974191,-0.122997 38.496603,0c0.859689,1.721952 1.835947,6.614483 1.471672,7.366129z"/>
   <path stroke="null" id="svg_46" fill="url(#linear-gradient-25)" d="m556.9258,412.464208c-0.378846,6.095164 -0.43713,31.84245 -0.43713,62.058613c0,11.930669 0,24.599318 0,36.967308c0.131139,34.548375 0.305991,67.251802 0.378846,77.556183l-291.667869,0l0,-36.447989l213.013567,-16.672871l40.463689,-95.404355l29.899709,0l0,-23.629011a22.847341,21.428739 0 0 1 9.442013,-10.769035a28.049191,26.307604 0 0 0 -1.092826,6.341157z"/>
   <path stroke="null" id="svg_47" fill="url(#linear-gradient-26)" d="m600.901103,384.981303c-9.83543,3.12958 -19.598006,8.814756 -23.313613,17.889171c-1.690237,4.099886 -1.690237,9.38874 2.02537,11.985334c2.375074,1.680953 5.595267,1.735619 8.567753,1.735619a58.82316,55.170804 0 0 0 13.769603,-1.052304a19.670861,18.449488 0 0 0 11.511096,-6.710147c2.593639,-3.430238 3.584468,-8.049443 7.285504,-10.495709c4.298447,-2.883587 11.481954,-2.200272 13.653035,-6.723814c1.457101,-3.02025 -0.43713,-6.764812 -1.865089,-9.49807c-2.360503,-4.523541 -1.0054,-4.099886 -6.35296,-3.416572c-8.261762,0.997639 -17.499781,3.826561 -25.280699,6.286492z"/>
   <path stroke="null" id="svg_48" fill="#46c6ef" d="m477.834368,356.897082s37.418349,6.409489 52.455629,15.483904l0,0l-9.514868,44.128443l1.73395,2.951918s-4.721007,99.039587 -13.900742,108.332663l-121.157932,-0.218661l7.620637,-73.92095l-23.881882,-5.30252s24.770714,-67.169804 28.90888,-72.513323c6.280104,-8.199773 26.752371,-12.641316 35.218127,-15.675232s42.518202,-3.266243 42.518202,-3.266243z"/>
   <path stroke="null" id="svg_49" fill="url(#linear-gradient-27)" d="m477.834368,356.897082s37.418349,6.409489 52.455629,15.483904l0,0l-9.514868,44.128443l1.73395,2.951918s-4.721007,99.039587 -13.900742,108.332663l-121.157932,-0.218661l8.873744,-82.175388l-18.228331,-2.938252s18.06805,-72.076001 23.313613,-76.531211s25.499264,-2.733258 33.96502,-5.794506s42.459918,-3.23891 42.459918,-3.23891z"/>
   <path stroke="null" id="svg_50" fill="url(#linear-gradient-28)" d="m500.098869,426.59515s-11.321673,86.097613 -21.375669,95.500019s-0.480843,29.505515 -0.480843,29.505515l30.526262,-26.881588l16.465239,-82.804037l-25.134989,-15.319909z"/>
   <path stroke="null" id="svg_51" fill="url(#linear-gradient-29)" d="m484.143615,357.785391c-0.58284,3.12958 -2.375074,3.34824 -4.167308,6.026833a20.778258,19.488126 0 0 1 -6.586096,5.767173c-5.303847,3.197911 -11.656806,5.30252 -17.92234,4.373212s-17.310358,-7.188467 -12.822487,-11.343019c6.688093,-6.231827 4.021598,-14.773257 2.447929,-16.098887c-5.974113,-5.04286 8.582324,-5.029194 15.911541,-8.199773c5.828403,-2.487264 12.443641,-11.917003 18.665461,-9.320408c5.653551,2.418933 5.318418,24.271327 4.473299,28.794868z"/>
   <path stroke="null" id="svg_52" fill="url(#linear-gradient-30)" d="m472.428524,354.942803a24.406439,22.891032 0 0 1 -8.392901,5.466515a11.467383,10.755368 0 0 1 -9.937428,-0.560318c-3.540755,-2.049943 -5.085282,-6.040499 -6.396673,-9.744063c-0.524556,-1.462293 -0.947116,-3.320908 0.276849,-4.359546a4.283876,4.017889 0 0 1 1.340533,-0.683314l18.024337,-6.641816a33.396751,31.323131 0 0 1 9.019454,-2.418933c5.828403,-0.464654 8.553182,1.817616 5.828403,6.833144a52.543055,49.280633 0 0 1 -9.762575,12.108331z"/>
   <path stroke="null" id="svg_53" fill="#46c6ef" d="m388.761796,568.451216l-1.209394,0.191328a56.244091,52.751871 0 0 0 -8.174336,4.099886l19.160876,-0.177662c46.015244,-0.450987 72.330484,-0.888309 77.882038,-3.457571a77.678044,72.85498 0 0 0 7.970341,-4.468876c-29.928851,2.118275 -94.828121,3.744563 -95.629526,3.812894z"/>
   <path stroke="null" id="svg_54" fill="#46c6ef" d="m498.933188,569.325858c-14.133878,2.897253 -100.321391,5.15219 -109.369987,5.343518c-3.817604,1.571623 -12.254218,5.972168 -13.857029,10.796367c-2.549926,7.735119 -57.540911,122.244944 -59.872272,127.096476l-1.15111,2.446266l-43.931589,-10.304381l1.136539,-3.197911c4.968714,-14.32227 49.031442,-139.642128 60.688249,-149.372525c10.782546,-9.047082 37.360065,-26.567263 60.396829,-28.521542c21.302814,-1.69462 111.919913,0.942974 115.795801,1.06597l2.914202,0.068331l0.335133,2.733258c0.43713,3.908558 3.788462,38.388602 -13.084765,41.846173z"/>
   <path stroke="null" id="svg_55" fill="url(#linear-gradient-31)" d="m498.933188,569.325858c-14.133878,2.897253 -100.321391,5.15219 -109.369987,5.343518c-3.817604,1.571623 -12.254218,5.972168 -13.857029,10.796367c-2.549926,7.735119 -57.540911,122.244944 -59.872272,127.096476l-1.15111,2.446266l-43.931589,-10.304381l1.136539,-3.197911c3.817604,-11.056027 30.875966,-88.065558 48.41946,-127.205806c5.230992,-11.616345 9.587723,-19.911781 12.268789,-22.166719c9.034025,-7.598456 29.258584,-21.16908 49.14801,-26.444267a57.905186,54.309827 0 0 1 11.248818,-2.077276c21.302814,-1.69462 111.919913,0.942974 115.795801,1.06597l2.914202,0.068331l0.335133,2.733258c0.43713,3.908558 3.788462,38.388602 -13.084765,41.846173z"/>
   <path stroke="null" id="svg_56" fill="#46c6ef" d="m505.825275,537.989061c0,10.864699 -1.87966,23.861338 -8.305475,25.186968a125.864368,118.049393 0 0 1 -13.113907,1.43496c8.902886,-5.835505 18.884026,-15.251577 21.419382,-26.621928z"/>
   <path stroke="null" id="svg_57" fill="#46c6ef" d="m505.825275,537.852398c0,-2.500931 -0.131139,-4.960862 -0.262278,-7.024472c-16.144677,-0.450987 -93.254452,-2.514597 -112.051052,-0.942974a54.655851,51.262245 0 0 0 -10.84083,2.063609c-17.281216,4.837866 -35.830109,16.71387 -45.68011,24.88631c-1.457101,1.188967 -3.61361,4.960862 -6.367531,10.741702c-0.932545,1.872281 -1.937944,4.017889 -2.914202,6.341157c-15.940683,0.751646 -28.194901,1.749285 -32.420493,3.457571c-12.647635,5.138524 -38.700597,76.749872 -52.164209,120.591323l-0.932545,3.143246l-40.317979,-11.930669l0.859689,-2.951918c1.457101,-4.591873 34.096159,-112.309552 40.317979,-127.014478c6.571525,-15.319909 25.994678,-22.740703 40.128556,-28.138886l1.937944,-0.751646c14.061023,-5.398184 196.708609,-5.466515 217.53058,-5.466515l2.73935,0l0.539127,2.582928a28.515463,26.744925 0 0 1 -0.101997,10.413711z"/>
   <path stroke="null" id="svg_58" fill="url(#linear-gradient-32)" d="m381.723999,525.675735c-19.889426,5.275187 -40.113985,18.845811 -49.14801,26.444267c-2.681065,2.254937 -7.037797,10.550374 -12.268789,22.166719c-12.312502,0.696981 -21.492237,1.639955 -25.047563,3.088581c-12.647635,5.138524 -38.700597,76.749872 -52.164209,120.591323l-0.932545,3.143246l-40.317979,-11.930669l0.859689,-2.951918c1.457101,-4.591873 34.096159,-112.309552 40.317979,-127.014478c6.571525,-15.319909 25.994678,-22.740703 40.128556,-28.138886l1.937944,-0.751646c6.556954,-2.514597 50.022271,-3.894892 96.634926,-4.646538z"/>
   <path stroke="null" id="svg_59" fill="#606161" d="m548.766036,541.938618l-0.539127,0c-1.457101,0 -2.812205,-0.122997 -4.225592,-0.122997c-51.158809,0 -92.817322,51.631235 -92.817322,115.070143s41.658512,115.083809 92.817322,115.083809c1.457101,0 2.812205,-0.068331 4.225592,-0.122997l0.539127,0c49.016871,-3.088581 88.125457,-53.462518 88.125457,-114.960812s-39.181441,-111.8039 -88.125457,-114.947146zm-4.76472,211.185144c-40.04113,0 -72.723901,-43.158137 -72.723901,-96.237998s32.682771,-96.224332 72.723901,-96.224332c1.457101,0 3.016199,0 4.48787,0.191328c38.044902,3.074915 68.323457,44.975753 68.323457,96.033004s-30.278555,92.930756 -68.323457,96.04667c-1.544527,0.122997 -3.074483,0.191328 -4.560726,0.191328l0.072855,0z"/>
   <path stroke="null" id="svg_60" fill="url(#linear-gradient-33)" d="m548.766036,541.938618l-0.539127,0c-48.958587,3.143246 -88.067173,53.517183 -88.067173,114.947146s39.108586,111.872231 88.067173,114.960812l0.539127,0c49.016871,-3.088581 88.125457,-53.462518 88.125457,-114.960812s-39.181441,-111.8039 -88.125457,-114.947146zm4.211021,211.185144c-1.457101,0 -3.001628,0 -4.48787,-0.191328c-1.457101,0.122997 -3.001628,0.191328 -4.48787,0.191328c-40.04113,0 -72.723901,-43.158137 -72.723901,-96.237998s32.682771,-96.224332 72.723901,-96.224332c1.457101,0 3.016199,0 4.48787,0.191328c1.457101,-0.122997 3.016199,-0.191328 4.48787,-0.191328c40.128556,0 72.738472,43.158137 72.738472,96.224332s-32.682771,96.237998 -72.811327,96.237998l0.072855,0z"/>
   <path stroke="null" id="svg_61" fill="#606161" d="m383.691085,776.684442c-20.151704,0 -35.932106,-18.791146 -35.932106,-42.789147s15.780402,-42.789147 35.932106,-42.789147s35.932106,18.791146 35.932106,42.789147s-15.780402,42.789147 -35.932106,42.789147zm0,-68.550099c-9.631436,0 -17.77663,11.794006 -17.77663,25.760952s8.145194,25.760952 17.77663,25.760952s17.77663,-11.794006 17.77663,-25.760952s-8.145194,-25.774619 -17.77663,-25.774619l0,0.013666z"/>
   <path stroke="null" id="svg_62" fill="url(#linear-gradient-34)" d="m387.421263,691.311143a35.830109,33.605401 0 0 0 -3.744749,-0.191328c-20.166275,0 -35.902964,18.791146 -35.902964,42.789147s15.736689,42.775481 35.902964,42.775481a35.830109,33.605401 0 0 0 3.744749,-0.191328c18.344899,-2.200272 32.216499,-20.103109 32.216499,-42.584153s-13.8716,-40.397546 -32.216499,-42.597819zm-3.744749,68.331439c-9.646007,0 -17.747488,-11.807673 -17.747488,-25.747286s8.10148,-25.774619 17.747488,-25.774619a12.123079,11.370351 0 0 1 3.744749,0.560318c7.897486,2.582928 14.061023,13.064971 14.061023,25.200635s-6.163536,22.60404 -14.061023,25.118637a10.374558,9.730397 0 0 1 -3.744749,0.655982l0,-0.013666z"/>
   <path stroke="null" id="svg_63" fill="url(#linear-gradient-35)" d="m387.421263,691.311143c-18.009766,2.200272 -31.677372,20.103109 -31.677372,42.597819s13.667606,40.38388 31.677372,42.584153c18.344899,-2.200272 32.216499,-20.103109 32.216499,-42.584153s-13.8716,-40.397546 -32.216499,-42.597819zm3.686465,68.331439a10.010283,9.38874 0 0 1 -3.686465,-0.628649a10.374558,9.730397 0 0 1 -3.744749,0.628649c-9.646007,0 -17.747488,-11.807673 -17.747488,-25.747286s8.10148,-25.774619 17.747488,-25.774619a12.123079,11.370351 0 0 1 3.744749,0.560318a11.656806,10.93303 0 0 1 3.686465,-0.560318c9.442013,0 17.48521,11.739341 17.48521,25.760952s-8.043196,25.774619 -17.48521,25.774619l0,-0.013666z"/>
   <path stroke="#46c6ef" id="svg_64" stroke-width="4.6" stroke-miterlimit="10" fill="none" d="m519.507451,372.36732a10.199706,9.566401 0 0 0 -3.555326,0.573984c-3.482471,1.2163 -5.828403,4.181884 -6.819232,8.582429l0,0c-5.20185,23.314687 4.779291,47.900338 13.361614,68.017114a110.739661,103.863787 0 0 0 30.482549,-7.58479c0.480843,-0.191328 1.748521,-0.683314 1.996228,-1.093303a5.740977,5.384517 0 0 0 0,-2.377934c-1.777663,-10.659704 -5.274705,-21.251077 -8.655179,-31.500793l-0.364275,-1.134302c-3.293048,-9.962724 -7.795489,-23.629011 -16.508952,-29.92917a16.654662,15.620567 0 0 0 -9.937428,-3.553235z"/>
   <path stroke="null" id="svg_65" fill="#46c6ef" d="m558.382901,447.176579a9.951999,9.334075 0 0 1 -5.158137,3.635233a116.276645,109.056976 0 0 1 -34.970419,8.295437l-2.477071,0.245993l-0.932545,-2.186606c-9.10688,-21.305743 -20.399411,-47.832007 -14.673005,-73.797954c1.457101,-6.532486 5.420415,-11.247355 11.059395,-13.187968c6.148965,-2.145607 13.594751,-0.696981 19.889426,3.894892c10.374558,7.475459 15.270416,22.23505 18.811171,33.031417l0.335133,1.134302c3.482471,10.427378 7.037797,21.292076 8.917457,32.348103a10.563981,9.908059 0 0 1 -0.801405,6.587151z"/>
   <path stroke="null" id="svg_66" fill="#46c6ef" d="m395.537315,681.813073l-13.390756,0l0,-120.987645a43.057329,40.38388 0 0 1 43.013616,-40.342881l135.262668,0l0,12.559318l-135.262668,0a29.652001,27.810895 0 0 0 -29.622859,27.783563l0,120.987645z"/>
   <path stroke="null" id="svg_67" fill="#46c6ef" d="m313.415113,745.265646a28.267756,26.512598 0 0 1 -6.571525,-0.751646c-12.195934,-2.733258 -35.40755,-13.447627 -41.527373,-16.399545l-108.379158,0.58765l0,-12.572985l111.628493,-0.58765l1.457101,0.696981c0.276849,0.122997 27.684915,13.242633 39.997417,15.989557a11.336244,10.632372 0 0 0 11.729662,-3.088581c1.923373,-7.407128 12.108508,-46.246718 21.200817,-72.349327c3.715607,-10.673371 10.024854,-18.121498 18.767458,-22.112054c13.259617,-6.067832 27.014649,-1.489625 27.597489,-1.284631l-4.604439,11.862338c-0.101997,0 -9.194306,-2.938252 -17.295787,0.819977c-5.303847,2.459932 -9.281732,7.393462 -11.802517,14.677593c-9.864572,28.302882 -21.113391,72.171665 -21.229959,72.608987l-0.247707,0.997639l-0.58284,0.874642a24.100447,22.60404 0 0 1 -20.137133,10.031055z"/>
   <path stroke="null" id="svg_68" fill="url(#linear-gradient-36)" d="m313.415113,745.265646a28.267756,26.512598 0 0 1 -6.571525,-0.751646c-12.195934,-2.733258 -35.40755,-13.447627 -41.527373,-16.399545l-108.379158,0.58765l0,-12.572985l111.628493,-0.58765l1.457101,0.696981c0.276849,0.122997 27.684915,13.242633 39.997417,15.989557a11.336244,10.632372 0 0 0 11.729662,-3.088581c1.923373,-7.407128 12.108508,-46.246718 21.200817,-72.349327c3.715607,-10.673371 10.024854,-18.121498 18.767458,-22.112054c13.259617,-6.067832 27.014649,-1.489625 27.597489,-1.284631l-4.604439,11.862338c-0.101997,0 -9.194306,-2.938252 -17.295787,0.819977c-5.303847,2.459932 -9.281732,7.393462 -11.802517,14.677593c-9.864572,28.302882 -21.113391,72.171665 -21.229959,72.608987l-0.247707,0.997639l-0.58284,0.874642a24.100447,22.60404 0 0 1 -20.137133,10.031055z"/>
   <ellipse stroke="null" id="svg_69" fill="#46c6ef" ry="21.073416" rx="13.507324" cy="657.487081" cx="550.062855"/>
   <ellipse stroke="null" id="svg_70" fill="#46c6ef" ry="21.073416" rx="13.507324" cy="657.487081" cx="432.533104"/>
   <ellipse stroke="null" id="svg_71" fill="url(#linear-gradient-37)" ry="21.073416" rx="10.563981" cy="657.487081" cx="553.02077"/>
   <ellipse stroke="null" id="svg_72" fill="url(#linear-gradient-38)" ry="21.073416" rx="10.69512" cy="657.487081" cx="435.403593"/>
   <polygon stroke="null" id="svg_73" fill="#606161" points="158.62729002520064,728.9617455813775 202.95231767088262,746.2085890801307 312.7885409334194,744.445701573123 263.75712660638237,726.310522182778 158.62729002520064,728.9617455813775 "/>
   <path stroke="null" id="svg_74" fill="url(#linear-gradient-39)" d="m424.825041,317.07352c0.888831,6.136163 1.835947,12.408989 4.881288,17.889171c5.828403,10.441044 19.102592,16.317548 31.619088,15.210578s23.85274,-8.555096 30.599117,-18.490487s9.179735,-22.12572 8.320046,-33.878727c-0.568269,-7.762451 -2.593639,-15.606901 -7.285504,-22.057388c-7.649779,-10.646038 -21.24453,-16.071554 -34.533289,-19.132803c-6.556954,-1.516958 -13.361614,-2.623927 -20.035136,-1.708286c-31.181957,4.222883 -16.319529,43.226468 -13.565609,62.167943z"/>
   <path stroke="null" id="svg_75" fill="#606161" d="m414.363057,277.331955a121.026793,113.512186 0 0 1 0.349704,-20.198773c0.14571,-1.872281 0.626553,-4.099886 2.520784,-4.755868c0.743121,-0.232327 1.631953,-0.163995 2.229364,-0.628649a3.482471,3.266243 0 0 0 0.815976,-2.200272a13.623893,12.777979 0 0 1 5.026998,-7.543791a15.692976,14.718592 0 0 1 8.37833,-3.812894c5.434986,-0.573984 10.4037,2.569262 15.532695,4.373212c6.294675,2.213939 13.113907,2.418933 19.903997,2.473598s13.58018,0 20.020565,1.844949s12.589351,5.767173 15.051851,11.630011a6.688093,6.272826 0 0 0 1.049113,1.926947a8.218049,7.707786 0 0 0 1.690237,1.120636c3.992456,2.3916 5.099853,7.352463 5.34756,11.794006a65.77353,61.689623 0 0 1 -8.684321,33.824062a2.200222,2.063609 0 0 1 -0.815976,0.901975a1.646524,1.544291 0 0 1 -2.010799,-0.642316a4.779291,4.482542 0 0 1 -0.597411,-2.104608a131.270212,123.119586 0 0 0 -4.021598,-19.898115c-0.903403,-3.047582 -2.302219,-6.464154 -5.478699,-7.530125a11.904514,11.165357 0 0 0 -4.371302,-0.327991c-16.844085,0.58765 -33.717313,-3.12958 -50.473972,-1.448626c-5.114424,0.519319 -10.869972,2.022611 -13.113907,6.354824c-1.194823,2.309603 -1.092826,4.892531 -1.180252,7.379795s-0.160281,6.272826 -2.506213,2.733258c-2.855918,-4.441544 -4.109024,-10.208717 -4.662723,-15.265243z"/>
   <path stroke="null" id="svg_76" fill="url(#linear-gradient-40)" d="m395.537315,681.813073l-13.390756,0l0,-120.987645a43.057329,40.38388 0 0 1 43.013616,-40.342881l135.262668,0l0,12.559318l-135.262668,0a29.652001,27.810895 0 0 0 -29.622859,27.783563l0,120.987645z"/>
   <path stroke="null" id="svg_77" fill="url(#linear-gradient-41)" d="m553.224764,450.811811s17.266645,62.974254 -1.58824,67.101473s-119.117991,2.364268 -119.117991,2.364268s7.868344,-17.547513 25.470122,-18.135164s63.471311,-6.040499 63.471311,-6.040499l-2.768492,-39.90556l34.533289,-5.384517z"/>
   <path stroke="null" id="svg_78" fill="#46c6ef" d="m722.233887,201.101402s34.722712,58.095389 24.668717,142.402718s-112.517324,66.691484 -112.517324,66.691484l-8.742605,-40.083222s59.741133,-3.539569 71.660218,-17.684176s6.280104,-95.500019 6.280104,-95.500019l18.65089,-55.826785z"/>
   <path stroke="null" id="svg_79" fill="url(#linear-gradient-42)" d="m722.233887,201.101402s34.722712,58.095389 24.668717,142.402718s-112.517324,66.691484 -112.517324,66.691484l-8.742605,-40.083222s59.741133,-3.539569 71.660218,-17.684176s6.280104,-95.500019 6.280104,-95.500019l18.65089,-55.826785z"/>
  </g>
 </g>
</svg>